<svg width="13" height="14" viewBox="0 0 13 14" fill="none" xmlns="http://www.w3.org/2000/svg">
	<path d="M12.3214 7.17857C12.3214 6.89397 12.2126 6.61775 12.0117 6.42522L6.5625 0.976004C6.36161 0.775111 6.08538 0.657923 5.80078 0.657923C5.51618 0.657923 5.24833 0.775111 5.04743 0.976004L4.41964 1.60379C4.21875 1.79632 4.10156 2.07254 4.10156 2.35714C4.10156 2.64174 4.21875 2.91797 4.41964 3.11049L6.87221 5.57143H0.979353C0.376674 5.57143 0 6.07366 0 6.64286V7.71429C0 8.28348 0.376674 8.78571 0.979353 8.78571H6.87221L4.41964 11.2383C4.21875 11.4392 4.10156 11.7154 4.10156 12C4.10156 12.2846 4.21875 12.5608 4.41964 12.7617L5.04743 13.3895C5.24833 13.582 5.51618 13.6992 5.80078 13.6992C6.08538 13.6992 6.36161 13.582 6.5625 13.3895L12.0117 7.94029C12.2126 7.7394 12.3214 7.46317 12.3214 7.17857Z" fill="#DCDD4D" />
</svg>
