<svg width="1920" height="550" viewBox="0 0 1920 550" fill="none" xmlns="http://www.w3.org/2000/svg">
<path opacity="0.2" fill-rule="evenodd" clip-rule="evenodd" d="M1920 0H0C0 0 0 448.931 0 440C994 550 1920 550 1920 550V0Z" fill="url(#paint0_linear)"/>
<path opacity="0.3" fill-rule="evenodd" clip-rule="evenodd" d="M1920 0H0C0 0 0 411.026 0 402.095C981 550 1920 550 1920 550V0Z" fill="url(#paint1_linear)"/>
<path fill-rule="evenodd" clip-rule="evenodd" d="M1920 0H0C0 0 0 372.869 0 363.938C960 550 1920 550 1920 550V0Z" fill="url(#paint2_linear)"/>
<defs>
<linearGradient id="paint0_linear" x1="2577.26" y1="201.354" x2="2365.35" y2="946.527" gradientUnits="userSpaceOnUse">
<stop stop-color="#3BAEB2"/>
<stop offset="1" stop-color="#2CA9AD"/>
</linearGradient>
<linearGradient id="paint1_linear" x1="2713" y1="198.753" x2="2523.85" y2="953.463" gradientUnits="userSpaceOnUse">
<stop stop-color="#3BAEB2"/>
<stop offset="1" stop-color="#299DA1"/>
</linearGradient>
<linearGradient id="paint2_linear" x1="2713" y1="198.753" x2="2523.85" y2="953.463" gradientUnits="userSpaceOnUse">
<stop stop-color="#3BAEB2"/>
<stop offset="1" stop-color="#299DA1"/>
</linearGradient>
</defs>
</svg>
