<svg width="1280" height="282" viewBox="0 0 1280 282" fill="none" xmlns="http://www.w3.org/2000/svg">
	<path fill-rule="evenodd" clip-rule="evenodd" d="M0 21.0584C0 9.92169 9.09689 0.930111 20.2329 1.05979L1260.23 15.5C1271.19 15.6276 1280 24.5438 1280 35.4987V256.167C1280 267.182 1271.09 276.124 1260.08 276.167L20.0777 280.98C9.00172 281.023 0 272.056 0 260.98L0 21.0584Z" fill="url(#paint0_linear)" />
	<mask id="mask0" mask-type="alpha" maskUnits="userSpaceOnUse" x="0" y="1" width="1280" height="280">
		<path fill-rule="evenodd" clip-rule="evenodd" d="M0 21.0585C0 9.92173 9.09689 0.930155 20.2329 1.05984L1260.23 15.5001C1271.19 15.6277 1280 24.5439 1280 35.4987V256.167C1280 267.182 1271.09 276.124 1260.08 276.167L20.0777 280.98C9.00172 281.023 0 272.056 0 260.98L0 21.0585Z" fill="white" />
	</mask>
	<g mask="url(#mask0)">
		<path opacity="0.6" d="M-65.1089 237.507C-61.6531 215.688 -41.1634 200.801 -19.344 204.257L397.46 270.273C405.643 271.569 411.225 279.252 409.929 287.434L368.474 549.172C367.178 557.354 359.495 562.937 351.312 561.641L-90.1844 491.714C-98.3667 490.419 -103.949 482.735 -102.653 474.553L-65.1089 237.507Z" fill="url(#paint1_linear)" />
	</g>
	<defs>
		<linearGradient id="paint0_linear" x1="1280" y1="0.999878" x2="0" y2="0.999878" gradientUnits="userSpaceOnUse">
			<stop stop-color="#43C0C4" />
			<stop offset="1" stop-color="#37AAAD" />
		</linearGradient>
		<linearGradient id="paint1_linear" x1="-54.5075" y1="251.372" x2="27.9491" y2="358.421" gradientUnits="userSpaceOnUse">
			<stop stop-color="#43C0C4" />
			<stop offset="1" stop-color="#37AAAD" />
		</linearGradient>
	</defs>
</svg>
