<svg width="1280" height="280" viewBox="0 0 1280 280" fill="none" xmlns="http://www.w3.org/2000/svg">
	<path fill-rule="evenodd" clip-rule="evenodd" d="M0 20.0586C0 8.92181 9.09689 -0.0697674 20.2329 0.0599154L1260.23 14.5002C1271.19 14.6277 1280 23.544 1280 34.4988V255.167C1280 266.183 1271.09 275.124 1260.08 275.167L20.0777 279.98C9.00172 280.023 0 271.057 0 259.981L0 20.0586Z" fill="url(#paint0_linear)" />
	<mask id="mask0" mask-type="alpha" maskUnits="userSpaceOnUse" x="0" y="0" width="1280" height="280">
		<path fill-rule="evenodd" clip-rule="evenodd" d="M0 20.0586C0 8.92181 9.09689 -0.0697674 20.2329 0.0599154L1260.23 14.5002C1271.19 14.6277 1280 23.544 1280 34.4988V255.167C1280 266.183 1271.09 275.124 1260.08 275.167L20.0777 279.98C9.00172 280.023 0 271.057 0 259.981L0 20.0586Z" fill="white" />
	</mask>
	<g mask="url(#mask0)">
		<path opacity="0.6" d="M-65.1089 236.508C-61.6531 214.688 -41.1634 199.802 -19.344 203.257L397.46 269.273C405.643 270.569 411.225 278.252 409.929 286.435L368.474 548.172C367.178 556.354 359.495 561.937 351.312 560.641L-90.1844 490.715C-98.3667 489.419 -103.949 481.735 -102.653 473.553L-65.1089 236.508Z" fill="url(#paint1_linear)" />
	</g>
	<defs>
		<linearGradient id="paint0_linear" x1="1280" y1="0" x2="0" y2="0" gradientUnits="userSpaceOnUse">
			<stop stop-color="#43C0C4" />
			<stop offset="1" stop-color="#37AAAD" />
		</linearGradient>
		<linearGradient id="paint1_linear" x1="-54.5075" y1="250.373" x2="27.9491" y2="357.421" gradientUnits="userSpaceOnUse">
			<stop stop-color="#43C0C4" />
			<stop offset="1" stop-color="#37AAAD" />
		</linearGradient>
	</defs>
</svg>
