<svg width="164" height="49" viewBox="0 0 164 49" fill="none" xmlns="http://www.w3.org/2000/svg">
	<path fill-rule="evenodd" clip-rule="evenodd" d="M76.4879 34.7145H73.4639V21.4288C73.4639 20.2859 72.8879 19.8216 71.7719 19.8216C70.4759 19.8216 67.7759 20.6073 65.9039 21.5716V34.7145H62.8799V17.3216H65.3279L65.6159 18.8216C67.5599 17.893 70.5839 16.9645 72.6719 16.9645C75.4799 16.9645 76.4879 18.7145 76.4879 21.393V34.7145ZM80.6879 17.3216H83.7119V30.6073C83.7119 31.7502 84.2879 32.2145 85.4039 32.2145C86.6999 32.2145 89.3999 31.4287 91.2719 30.4645V17.3216H94.2959V34.7145H91.8479L91.5599 33.2145C89.6159 34.143 86.5919 35.0716 84.5039 35.0716C81.6959 35.0716 80.6879 33.3216 80.6879 30.643V17.3216ZM104.076 32.2502L108.9 17.3216H111.888L106.092 34.7145H102.06L96.2639 17.3216H99.2519L104.076 32.2502ZM116.88 34.7145H113.856V17.3216H116.88V34.7145ZM130.188 32.1073L130.584 34.4287C129.504 34.8216 128.208 35.0716 126.912 35.0716C123.96 35.0716 122.556 34.0002 122.556 31.1073V19.8216H119.46V17.3216H122.556V13.0359L125.58 12.6073V17.3216H130.548L130.296 19.8216H125.58V30.6073C125.58 31.893 125.76 32.5359 127.38 32.5359C128.208 32.5359 129.072 32.393 130.188 32.1073ZM135.648 28.643C135.648 31.393 136.404 32.5002 139.824 32.5002C141.552 32.5002 143.46 32.1788 145.368 31.6788L145.764 34.0716C144.108 34.6788 141.768 35.0716 139.572 35.0716C134.388 35.0716 132.624 32.6073 132.624 28.6788V23.4645C132.624 19.8573 134.28 16.9645 139.5 16.9645C144.684 16.9645 146.088 19.9288 146.088 23.5359V27.1788H135.648V28.643ZM135.648 23.2502V24.6787H143.172V23.2502C143.172 20.8216 142.344 19.4645 139.5 19.4645C136.656 19.4645 135.648 20.8216 135.648 23.2502ZM152.664 34.7145H149.64V10.2145L152.664 9.78589V34.7145ZM159.612 17.3216H163.104L156.84 25.9287L163.392 34.7145H159.828L153.42 25.9287L159.612 17.3216ZM82.7999 12.0954H85.1999V14.4764H82.7999V12.0954ZM92.3999 12.0954H89.9999V14.4764H92.3999V12.0954Z" fill="white" />
	<path fill-rule="evenodd" clip-rule="evenodd" d="M11.1592 33.133C9.60372 34.6762 8.33008 34.1532 8.33008 31.9713V16.3281C8.33008 14.1456 10.1309 12.3594 12.3308 12.3594H28.0996C30.3002 12.3594 30.8257 13.6216 29.2718 15.1658L11.1592 33.133" fill="white" />
	<path fill-rule="evenodd" clip-rule="evenodd" d="M23.0447 26.9535C21.4892 25.412 22.0153 24.1484 24.2153 24.1484H28.0997C30.3003 24.1484 33.9006 24.1484 36.1006 24.1484H39.9831C42.1847 24.1484 42.7112 25.412 41.1563 26.9535L34.93 33.133C33.3728 34.6762 30.8259 34.6762 29.272 33.133L23.0447 26.9535" fill="#9EA0A0" />
	<mask id="mask0" mask-type="alpha" maskUnits="userSpaceOnUse" x="0" y="0" width="49" height="49">
		<path fill-rule="evenodd" clip-rule="evenodd" d="M0.0195312 0.0605469H48.5641V48.2189H0.0195312V0.0605469Z" fill="white" />
	</mask>
	<g mask="url(#mask0)">
		<path fill-rule="evenodd" clip-rule="evenodd" d="M11.1596 15.1658C9.60407 13.6216 10.1312 12.3594 12.3312 12.3594H28.0999C30.3005 12.3594 32.101 14.1456 32.101 16.3281V31.9713C32.101 34.1532 30.8261 34.6762 29.2722 33.133L11.1596 15.1658" fill="#D1DA32" />
		<path fill-rule="evenodd" clip-rule="evenodd" d="M24.2799 2.81744C12.4247 2.81744 2.77892 12.3857 2.77892 24.1484C2.77892 35.9117 12.4247 45.4803 24.2799 45.4803C36.1393 45.4803 45.7851 35.9117 45.7851 24.1484C45.7851 12.3857 36.1393 2.81744 24.2799 2.81744ZM24.2799 48.2382C10.8916 48.2382 0 37.4321 0 24.1484C0 10.8657 10.8916 0.0605469 24.2799 0.0605469C37.6708 0.0605469 48.564 10.8657 48.564 24.1484C48.564 37.4321 37.6708 48.2382 24.2799 48.2382V48.2382Z" fill="white" />
	</g>
</svg>
