<svg width="177" height="51" viewBox="0 0 177 51" fill="none" xmlns="http://www.w3.org/2000/svg">
	<path fill-rule="evenodd" clip-rule="evenodd" d="M71.9424 35H68.0244V23.7109C68.0244 22.2943 67.7394 21.2373 67.1694 20.54C66.5994 19.8428 65.6947 19.4941 64.4551 19.4941C62.806 19.4941 61.5996 19.9811 60.8359 20.9551C60.0723 21.929 59.6904 23.5615 59.6904 25.8525V35H55.7891V16.6387H58.8438L59.3916 19.0459H59.5908C60.1442 18.1715 60.93 17.4964 61.9482 17.0205C62.9665 16.5446 64.0954 16.3066 65.335 16.3066C69.7399 16.3066 71.9424 18.5478 71.9424 23.0303V35ZM90.3203 35L89.7725 32.5928H89.5732C89.0309 33.445 88.259 34.1146 87.2573 34.6016C86.2557 35.0885 85.113 35.332 83.8291 35.332C81.6045 35.332 79.9443 34.7787 78.8486 33.6719C77.7529 32.5651 77.2051 30.8884 77.2051 28.6416V16.6387H81.1396V27.9609C81.1396 29.3665 81.4274 30.4207 82.0029 31.1235C82.5785 31.8263 83.4805 32.1777 84.709 32.1777C86.347 32.1777 87.5506 31.688 88.3198 30.7085C89.089 29.729 89.4736 28.0882 89.4736 25.7861V16.6387H93.3916V35H90.3203ZM103.137 35L96.1641 16.6387H100.281L104.017 27.3135C104.659 29.1065 105.046 30.5563 105.179 31.6631H105.312C105.411 30.8662 105.799 29.4164 106.474 27.3135L110.209 16.6387H114.359L107.354 35H103.137ZM121.05 35H117.148V16.6387H121.05V35ZM116.916 11.7744C116.916 11.0771 117.107 10.5404 117.489 10.1641C117.871 9.78776 118.416 9.59961 119.124 9.59961C119.81 9.59961 120.344 9.78776 120.726 10.1641C121.108 10.5404 121.299 11.0771 121.299 11.7744C121.299 12.4385 121.108 12.9614 120.726 13.3433C120.344 13.7251 119.81 13.916 119.124 13.916C118.416 13.916 117.871 13.7251 117.489 13.3433C117.107 12.9614 116.916 12.4385 116.916 11.7744ZM133.468 32.1777C134.42 32.1777 135.371 32.0283 136.323 31.7295V34.668C135.892 34.8561 135.335 35.0138 134.655 35.1411C133.974 35.2684 133.269 35.332 132.538 35.332C128.841 35.332 126.993 33.3841 126.993 29.4883V19.5938H124.486V17.8672L127.176 16.4395L128.504 12.5547H130.911V16.6387H136.141V19.5938H130.911V29.4219C130.911 30.3626 131.146 31.0571 131.617 31.5054C132.087 31.9536 132.704 32.1777 133.468 32.1777ZM148.011 35.332C145.155 35.332 142.922 34.4992 141.312 32.8335C139.702 31.1678 138.896 28.874 138.896 25.9521C138.896 22.9528 139.644 20.5954 141.138 18.8799C142.632 17.1644 144.685 16.3066 147.297 16.3066C149.721 16.3066 151.635 17.0426 153.041 18.5146C154.447 19.9867 155.149 22.012 155.149 24.5908V26.6992H142.914C142.969 28.4811 143.451 29.8507 144.358 30.8081C145.266 31.7655 146.544 32.2441 148.193 32.2441C149.278 32.2441 150.288 32.1418 151.223 31.937C152.158 31.7323 153.163 31.3919 154.236 30.916V34.0869C153.285 34.5407 152.322 34.8617 151.348 35.0498C150.374 35.238 149.261 35.332 148.011 35.332ZM147.297 19.2617C146.057 19.2617 145.064 19.6546 144.317 20.4404C143.57 21.2262 143.124 22.3717 142.98 23.877H151.314C151.292 22.3607 150.927 21.2124 150.219 20.4321C149.51 19.6519 148.536 19.2617 147.297 19.2617ZM163.351 25.3047L165.559 22.5488L171.104 16.6387H175.603L168.215 24.5244L176.067 35H171.485L165.592 26.9482L163.45 28.708V35H159.582V9.16797H163.45V21.7686L163.251 25.3047H163.351Z" fill="white" />
	<path fill-rule="evenodd" clip-rule="evenodd" d="M32 27L31.2709 33.5628C31.1719 34.4535 32.2043 35.0147 32.898 34.4472L39.8319 28.774C40.5592 28.1789 40.1384 27 39.1986 27H32Z" fill="#666890" />
	<mask id="mask0" mask-type="alpha" maskUnits="userSpaceOnUse" x="11" y="16" width="20" height="19">
		<path fill-rule="evenodd" clip-rule="evenodd" d="M31 16.0028L12.2193 34.5053C11.9407 34.7804 11.4879 34.7804 11.2093 34.5053C11.075 34.3737 11 34.1943 11 34.0078V18.1111C11 16.9451 11.9593 16 13.1429 16L31 16.0028Z" fill="white" />
	</mask>
	<g mask="url(#mask0)">
		<path fill-rule="evenodd" clip-rule="evenodd" d="M10.9717 34.7185H31.0288V15.9719H10.9717V34.7185Z" fill="url(#paint0_linear)" />
	</g>
	<mask id="mask1" mask-type="alpha" maskUnits="userSpaceOnUse" x="13" y="16" width="20" height="19">
		<path fill-rule="evenodd" clip-rule="evenodd" d="M13 16.0028L30.8571 16C32.0407 16 33 16.9451 33 18.1111V34.0078C33 34.1943 32.925 34.3737 32.7907 34.5053C32.5121 34.7804 32.0593 34.7804 31.7807 34.5053L13 16.0028Z" fill="white" />
	</mask>
	<g mask="url(#mask1)">
		<path fill-rule="evenodd" clip-rule="evenodd" d="M11.9717 34.7185H33.0003V15.9719H11.9717V34.7185Z" fill="url(#paint1_linear)" />
	</g>
	<path fill-rule="evenodd" clip-rule="evenodd" d="M25.5 49C38.4788 49 49 38.4788 49 25.5C49 12.5212 38.4788 2 25.5 2C12.5212 2 2 12.5212 2 25.5C2 38.4788 12.5212 49 25.5 49Z" stroke="white" stroke-width="2.4" />
	<defs>
		<linearGradient id="paint0_linear" x1="16.1864" y1="36.2745" x2="23.4104" y2="26.0564" gradientUnits="userSpaceOnUse">
			<stop stop-color="#43C0C4" />
			<stop offset="1" stop-color="#37AAAD" />
		</linearGradient>
		<linearGradient id="paint1_linear" x1="27.7431" y1="11.2852" x2="18.4313" y2="21.7305" gradientUnits="userSpaceOnUse">
			<stop stop-color="#C8C961" />
			<stop offset="1" stop-color="#DCDD4D" />
		</linearGradient>
	</defs>
</svg>
