<svg width="24" height="25" viewBox="0 0 24 25" fill="none" xmlns="http://www.w3.org/2000/svg">
	<mask id="mask0" mask-type="alpha" maskUnits="userSpaceOnUse" x="0" y="3" width="21" height="21">
		<path fill-rule="evenodd" clip-rule="evenodd" d="M0.0078125 3.0434H20.5461V23.954H0.0078125V3.0434Z" fill="white" />
	</mask>
	<g mask="url(#mask0)">
		<path fill-rule="evenodd" clip-rule="evenodd" d="M0 21.8098V4.83136C0 3.84454 0.786787 3.0434 1.75683 3.0434H18.4391L0 21.8098Z" fill="#284D82" />
		<path fill-rule="evenodd" clip-rule="evenodd" d="M0 22.1661V21.8098L18.4391 3.0434H18.7892C19.7593 3.0434 20.5465 3.84454 20.5465 4.83136V5.18807L2.10692 23.954H1.75683C0.786787 23.954 0 23.1528 0 22.1661Z" fill="#8DAFE2" />
	</g>
	<path fill-rule="evenodd" clip-rule="evenodd" d="M2.10645 23.9539L10.2728 15.6434L18.4387 23.9539H2.10645Z" fill="#89ACE0" />
	<path fill-rule="evenodd" clip-rule="evenodd" d="M18.4394 23.9539L10.1484 15.516L12.2558 13.3719L20.5468 21.8098V22.1661C20.5468 23.1528 19.7596 23.9539 18.7895 23.9539H18.4394Z" fill="white" />
	<path fill-rule="evenodd" clip-rule="evenodd" d="M20.5463 21.8098L12.3799 13.4987L20.5463 5.18805V21.8098Z" fill="#345990" />
	<path fill-rule="evenodd" clip-rule="evenodd" d="M3.6649 5.35506C4.71028 4.86793 6.01807 5.0666 6.8673 5.8636C6.60164 6.13921 6.32879 6.40833 6.05594 6.67648C5.20671 5.8187 3.61128 6.22569 3.21354 7.3602C2.69295 8.47647 3.55779 9.94419 4.78169 9.96022C5.58246 10.0553 6.38132 9.50943 6.55019 8.69751C5.99078 8.69861 5.43246 8.69323 4.87399 8.70179C4.85825 8.35144 4.85621 7.99998 4.86354 7.64852C5.79761 7.67311 6.7549 7.59409 7.6754 7.68706C7.74585 8.38238 7.69752 9.12053 7.33019 9.73047C6.75395 10.8223 5.39363 11.2986 4.24209 11.023C2.81879 10.723 1.75345 9.23699 1.9477 7.76498C2.04734 6.72663 2.73694 5.78554 3.6649 5.35506Z" fill="#F1F0ED" />
	<path fill-rule="evenodd" clip-rule="evenodd" d="M16.8273 3.80165C16.0375 3.98098 15.3748 4.69191 15.3082 5.52386C15.2252 6.29848 15.6709 7.08456 16.353 7.42649C17.0927 7.82464 18.0637 7.70265 18.6815 7.12725C19.2581 6.60808 19.4681 5.71147 19.1669 4.98589C18.8104 4.07796 17.7523 3.56086 16.8273 3.80165ZM16.9575 0.0997314H17.6254C19.2899 0.196714 20.9176 1.02438 21.9266 2.38601C22.5873 3.24601 22.956 4.31351 23.0391 5.39773V5.80016C23.0001 7.90187 21.6786 9.62711 20.5344 11.2619C19.25 13.1091 18.0627 15.1222 17.7338 17.399C17.6457 17.7849 17.7513 18.3248 17.2985 18.499C17.1921 18.4144 17.0681 18.3446 16.9933 18.2268C16.8591 16.9539 16.5467 15.6967 16.013 14.5343C15.4075 13.18 14.5645 11.9561 13.7081 10.7583C13.1868 10.0401 12.695 9.29665 12.2883 8.50435C11.6492 7.31693 11.4116 5.91372 11.6727 4.58152C11.8869 3.52963 12.4278 2.55483 13.1765 1.80107C14.1855 0.797123 15.5499 0.189392 16.9575 0.0997314Z" fill="#A2C1EE" />
	<path fill-rule="evenodd" clip-rule="evenodd" d="M16.8279 3.80168C17.7529 3.56088 18.811 4.07798 19.1675 4.98592C19.4687 5.71149 19.2587 6.6081 18.682 7.12728C18.0643 7.70268 17.0933 7.82467 16.3536 7.42651C15.6714 7.08459 15.2258 6.2985 15.3087 5.52388C15.3754 4.69193 16.0381 3.981 16.8279 3.80168Z" fill="white" />
</svg>
