<svg width="1280" height="145" viewBox="0 0 1280 145" fill="none" xmlns="http://www.w3.org/2000/svg">
<g opacity="0.3">
<path opacity="0.15" fill-rule="evenodd" clip-rule="evenodd" d="M0 133.154C0 133.154 257.096 95.7996 620.199 89.0895C1089.53 80.4165 1280 6.64667 1280 14.5984C1280 28.9172 1280 107.057 1280 135.032C1280 140.555 1275.52 145 1270 145H10C4.47715 145 0 140.523 0 135V133.154Z" fill="#48B3B7"/>
<path opacity="0.15" fill-rule="evenodd" clip-rule="evenodd" d="M9.32364e-06 85.3017C9.32364e-06 85.3017 439.148 17.1986 626.642 73.4339C814.137 129.669 1280 118.239 1280 118.239V135C1280 140.523 1275.52 145 1270 145H10C4.47716 145 9.32364e-06 140.523 9.32364e-06 135V85.3017Z" fill="#48B3B7"/>
<path opacity="0.1" fill-rule="evenodd" clip-rule="evenodd" d="M0 39.0232C0 39.0232 417.011 0 628.737 0C840.463 0 1280 72.5 1280 72.5V135C1280 140.523 1275.52 145 1270 145H10C4.47715 145 0 140.523 0 135V39.0232Z" fill="#48B3B7"/>
</g>
</svg>
