<svg width="1920" height="228" viewBox="0 0 1920 228" fill="none" xmlns="http://www.w3.org/2000/svg">
<path fill-rule="evenodd" clip-rule="evenodd" d="M412.949 119.877V116.258H408.429V110.631L408.277 110.677L404.032 111.969L403.948 111.994V116.258H397.248V113.883C397.248 112.777 397.497 111.93 397.987 111.366C398.473 110.808 399.169 110.525 400.057 110.525C400.695 110.525 401.356 110.674 402.021 110.969L402.188 111.043V107.231L402.11 107.203C401.489 106.981 400.645 106.869 399.599 106.869C398.281 106.869 397.083 107.154 396.039 107.72C394.994 108.286 394.171 109.094 393.595 110.122C393.021 111.149 392.73 112.334 392.73 113.646V116.258H389.583V119.877H392.73V135.126H397.248V119.877H403.948V129.567C403.948 133.558 405.841 135.581 409.574 135.581C410.187 135.581 410.833 135.509 411.492 135.369C412.163 135.225 412.62 135.082 412.889 134.929L412.949 134.894V131.241L412.765 131.361C412.52 131.524 412.215 131.657 411.857 131.755C411.497 131.856 411.197 131.906 410.964 131.906C410.09 131.906 409.443 131.672 409.041 131.21C408.635 130.743 408.429 129.927 408.429 128.785V119.877H412.949ZM379.494 131.907C377.854 131.907 376.562 131.366 375.65 130.301C374.734 129.23 374.269 127.704 374.269 125.765C374.269 123.764 374.734 122.198 375.651 121.109C376.563 120.027 377.843 119.477 379.457 119.477C381.024 119.477 382.271 120.002 383.164 121.038C384.062 122.078 384.517 123.632 384.517 125.656C384.517 127.705 384.089 129.278 383.244 130.331C382.405 131.376 381.144 131.907 379.494 131.907ZM372.31 118.513C374.082 116.715 376.567 115.803 379.695 115.803C382.642 115.803 384.979 116.675 386.641 118.396C388.302 120.115 389.144 122.509 389.144 125.509C389.144 128.547 388.247 131.012 386.476 132.833C384.705 134.656 382.27 135.58 379.237 135.58C376.327 135.58 373.975 134.703 372.247 132.971C370.518 131.24 369.642 128.864 369.642 125.91C369.642 122.8 370.539 120.311 372.31 118.513ZM362.358 115.803C360.23 115.803 358.469 116.344 357.125 117.412C355.772 118.486 355.086 119.894 355.086 121.598C355.086 122.484 355.234 123.27 355.525 123.938C355.818 124.607 356.272 125.197 356.875 125.692C357.474 126.182 358.397 126.696 359.621 127.219C360.65 127.641 361.418 127.997 361.905 128.277C362.382 128.553 362.72 128.829 362.911 129.098C363.096 129.362 363.19 129.723 363.19 130.168C363.19 131.436 362.236 132.052 360.272 132.052C359.543 132.052 358.712 131.901 357.802 131.603C356.898 131.309 356.045 130.879 355.273 130.328L355.085 130.194V134.519L355.154 134.551C355.793 134.845 356.599 135.092 357.549 135.287C358.497 135.482 359.359 135.581 360.107 135.581C362.416 135.581 364.276 135.037 365.633 133.963C366.998 132.882 367.69 131.441 367.69 129.678C367.69 128.406 367.318 127.315 366.583 126.436C365.854 125.563 364.588 124.762 362.823 124.054C361.416 123.493 360.515 123.027 360.143 122.669C359.785 122.323 359.603 121.835 359.603 121.216C359.603 120.667 359.828 120.227 360.289 119.871C360.753 119.514 361.4 119.332 362.211 119.332C362.964 119.332 363.734 119.45 364.5 119.682C365.266 119.913 365.938 120.224 366.499 120.604L366.684 120.729V116.626L366.613 116.595C366.095 116.375 365.412 116.186 364.583 116.032C363.758 115.88 363.009 115.803 362.358 115.803ZM339.464 130.301C340.375 131.366 341.669 131.907 343.308 131.907C344.958 131.907 346.219 131.376 347.058 130.331C347.903 129.278 348.331 127.705 348.331 125.656C348.331 123.632 347.876 122.078 346.978 121.038C346.085 120.002 344.838 119.477 343.272 119.477C341.657 119.477 340.376 120.027 339.465 121.109C338.548 122.198 338.084 123.764 338.084 125.765C338.084 127.705 338.548 129.23 339.464 130.301ZM343.509 115.803C340.38 115.803 337.895 116.715 336.124 118.513C334.354 120.311 333.456 122.8 333.456 125.91C333.456 128.865 334.333 131.24 336.061 132.971C337.789 134.703 340.142 135.58 343.052 135.58C346.084 135.58 348.52 134.656 350.291 132.833C352.061 131.012 352.959 128.547 352.959 125.509C352.959 122.509 352.116 120.115 350.455 118.396C348.793 116.675 346.456 115.803 343.509 115.803ZM326.598 116.258V119.525H326.645C327.062 118.465 327.608 117.614 328.362 116.994C329.222 116.289 330.225 115.93 331.347 115.93C332.091 115.93 332.679 116.019 333.094 116.195L333.167 116.225V120.7L332.979 120.565C332.772 120.417 332.422 120.276 331.938 120.146C331.45 120.016 330.998 119.95 330.596 119.95C329.411 119.95 328.439 120.46 327.71 121.466C326.972 122.484 326.598 123.833 326.598 125.474V135.125H322.135V116.258H326.598ZM314.143 115.803C312.096 115.803 310.27 116.24 308.716 117.1C307.16 117.963 305.956 119.195 305.137 120.761C304.322 122.323 303.908 124.148 303.908 126.183C303.908 127.966 304.309 129.602 305.102 131.044C305.896 132.488 307.02 133.618 308.442 134.401C309.862 135.184 311.503 135.581 313.321 135.581C315.442 135.581 317.252 135.159 318.704 134.328L318.763 134.294V130.228L318.575 130.364C317.918 130.841 317.183 131.221 316.392 131.495C315.603 131.769 314.884 131.907 314.254 131.907C312.502 131.907 311.097 131.362 310.076 130.288C309.054 129.212 308.535 127.701 308.535 125.801C308.535 123.888 309.076 122.339 310.142 121.195C311.204 120.056 312.612 119.477 314.327 119.477C315.794 119.477 317.223 119.971 318.576 120.947L318.763 121.082V116.798L318.702 116.764C318.194 116.481 317.499 116.247 316.638 116.069C315.78 115.892 314.941 115.803 314.143 115.803ZM296.371 116.258H300.834V135.125H296.371V116.258ZM298.648 108.22C297.914 108.22 297.273 108.469 296.747 108.962C296.218 109.456 295.95 110.078 295.95 110.812C295.95 111.535 296.215 112.146 296.739 112.627C297.259 113.106 297.902 113.349 298.649 113.349C299.396 113.349 300.041 113.106 300.567 112.628C301.097 112.146 301.365 111.535 301.365 110.812C301.365 110.104 301.104 109.488 300.589 108.982C300.074 108.476 299.421 108.22 298.648 108.22ZM287.514 135.125V114.866H287.367L279.284 135.125H276.054L267.844 114.864H267.697V135.125H263.417V108.798H269.977L277.752 128.353L285.765 108.798H292.068V135.125H287.514Z" fill="#A2C1EE" fill-opacity="0.297328"/>
<path d="M226.994 120.879H206V100H226.994V120.879Z" fill="#A2C1EE" fill-opacity="0.297328"/>
<path d="M250.173 120.879H229.18V100H250.173V120.879Z" fill="#A2C1EE" fill-opacity="0.297328"/>
<path d="M226.993 143.939H206V123.061H226.993V143.939Z" fill="#A2C1EE" fill-opacity="0.297328"/>
<path d="M250.173 143.939H229.18V123.061H250.173V143.939Z" fill="#A2C1EE" fill-opacity="0.297328"/>
<rect x="459" y="73" width="220" height="100" fill="white"/>
<path d="M556.434 81.5144C561.267 76.4789 567.995 73.3558 575.436 73.3558C585.328 73.3558 593.958 78.8716 598.554 87.0599C602.548 85.2755 606.969 84.2828 611.62 84.2828C629.461 84.2828 643.925 98.873 643.925 116.87C643.925 134.869 629.461 149.459 611.62 149.459C609.483 149.46 607.351 149.248 605.257 148.825C601.21 156.044 593.497 160.922 584.645 160.922C580.939 160.922 577.434 160.066 574.313 158.544C570.211 168.194 560.652 174.961 549.511 174.961C537.91 174.961 528.022 167.62 524.227 157.325C522.568 157.677 520.85 157.861 519.086 157.861C505.273 157.861 494.075 146.548 494.075 132.589C494.075 123.235 499.106 115.068 506.582 110.699C505.043 107.158 504.187 103.249 504.187 99.1397C504.187 83.0875 517.219 70.075 533.292 70.075C542.729 70.075 551.116 74.5619 556.434 81.5144Z" fill="#A2C1EE" fill-opacity="0.297328"/>
<path fill-rule="evenodd" clip-rule="evenodd" d="M515.82 124.782C515.776 124.74 515.701 124.67 515.779 124.467L516.386 122.784C516.482 122.494 516.702 122.59 516.789 122.646C516.86 122.688 516.923 122.729 516.989 122.772C517.079 122.83 517.173 122.891 517.297 122.964C519.084 124.093 520.738 124.104 521.257 124.104C522.593 124.104 523.421 123.395 523.421 122.443V122.392C523.421 121.351 522.15 120.96 520.672 120.506L520.668 120.505L520.341 120.404C518.311 119.824 516.144 118.991 516.144 116.423V116.372C516.144 113.936 518.108 112.237 520.922 112.237L521.229 112.235C522.881 112.235 524.478 112.715 525.633 113.418C525.737 113.482 525.84 113.601 525.782 113.764C525.729 113.913 525.216 115.292 525.157 115.446C525.048 115.734 524.751 115.542 524.751 115.542C523.739 114.983 522.168 114.543 520.845 114.543C519.653 114.543 518.885 115.175 518.885 116.033V116.086C518.885 117.089 520.198 117.516 521.722 118.011L521.724 118.011L521.987 118.097C524.008 118.735 526.162 119.619 526.162 122.052V122.103C526.162 124.736 524.254 126.371 521.18 126.371C519.671 126.371 518.227 126.134 516.699 125.323C516.639 125.289 516.58 125.255 516.52 125.222C516.292 125.095 516.066 124.968 515.843 124.806C515.838 124.799 515.83 124.791 515.82 124.782ZM560.82 124.782C560.775 124.74 560.701 124.67 560.779 124.467L561.385 122.784C561.475 122.509 561.735 122.609 561.791 122.646C561.826 122.668 561.859 122.69 561.892 122.711L561.893 122.712L561.893 122.712C562.013 122.79 562.128 122.865 562.297 122.964C564.083 124.093 565.738 124.104 566.256 124.104C567.592 124.104 568.423 123.395 568.423 122.443V122.392C568.423 121.352 567.15 120.961 565.674 120.507L565.667 120.505L565.34 120.404C563.31 119.824 561.144 118.991 561.144 116.423V116.372C561.144 113.936 563.107 112.237 565.921 112.237L566.228 112.235C567.88 112.235 569.477 112.715 570.632 113.418C570.737 113.482 570.839 113.601 570.781 113.764C570.728 113.913 570.216 115.292 570.156 115.446C570.047 115.734 569.75 115.542 569.75 115.542C568.739 114.983 567.167 114.543 565.844 114.543C564.653 114.543 563.884 115.175 563.884 116.033V116.086C563.884 117.089 565.198 117.516 566.721 118.011L566.724 118.011L566.986 118.097C569.008 118.735 571.162 119.619 571.162 122.052V122.103C571.162 124.736 569.253 126.371 566.179 126.371C564.67 126.371 563.227 126.134 561.699 125.323C561.639 125.289 561.579 125.255 561.519 125.222L561.519 125.222L561.519 125.221C561.291 125.094 561.066 124.968 560.843 124.806C560.838 124.799 560.83 124.791 560.82 124.782ZM591.499 119.311C591.499 120.799 591.221 121.971 590.675 122.799C590.135 123.619 589.317 124.018 588.178 124.018C587.036 124.018 586.222 123.621 585.691 122.799C585.153 121.973 584.88 120.799 584.88 119.311C584.88 117.825 585.153 116.656 585.691 115.836C586.222 115.025 587.036 114.63 588.178 114.63C589.317 114.63 590.135 115.025 590.677 115.836C591.221 116.655 591.499 117.825 591.499 119.311ZM592.897 114.325C593.42 114.95 593.813 115.701 594.065 116.553C594.317 117.401 594.443 118.329 594.443 119.311C594.443 120.293 594.317 121.222 594.065 122.069C593.813 122.921 593.42 123.672 592.897 124.298C592.374 124.925 591.71 125.427 590.927 125.783C590.141 126.14 589.217 126.321 588.178 126.321C587.136 126.321 586.211 126.14 585.426 125.783C584.643 125.427 583.979 124.925 583.456 124.298C582.931 123.67 582.54 122.919 582.286 122.069C582.036 121.224 581.91 120.295 581.91 119.311C581.91 118.327 582.036 117.401 582.286 116.553C582.54 115.704 582.933 114.952 583.454 114.325C583.979 113.697 584.64 113.193 585.426 112.826C586.209 112.461 587.136 112.275 588.178 112.275C589.217 112.275 590.143 112.461 590.927 112.826C591.712 113.193 592.374 113.697 592.897 114.325ZM615.135 123.621C615.049 123.371 614.808 123.465 614.808 123.465C614.435 123.608 614.038 123.74 613.615 123.806C613.186 123.872 612.714 123.907 612.208 123.907C610.966 123.907 609.98 123.537 609.273 122.807C608.564 122.077 608.167 120.897 608.172 119.3C608.176 117.846 608.526 116.753 609.156 115.921C609.781 115.093 610.733 114.668 612.003 114.668C613.062 114.668 613.869 114.79 614.714 115.056C614.714 115.056 614.917 115.144 615.013 114.879C615.085 114.68 615.15 114.499 615.215 114.322L615.216 114.319L615.216 114.317L615.216 114.317C615.352 113.943 615.481 113.589 615.643 113.125C615.711 112.93 615.545 112.847 615.485 112.824C615.152 112.693 614.366 112.482 613.773 112.392C613.218 112.307 612.569 112.262 611.847 112.262C610.769 112.262 609.809 112.446 608.987 112.813C608.167 113.178 607.471 113.682 606.921 114.309C606.37 114.937 605.952 115.688 605.672 116.538C605.395 117.385 605.254 118.316 605.254 119.3C605.254 121.428 605.828 123.149 606.961 124.408C608.097 125.672 609.803 126.314 612.027 126.314C613.342 126.314 614.691 126.048 615.66 125.666C615.66 125.666 615.846 125.576 615.765 125.36L615.135 123.621ZM620.326 115.837C619.974 116.372 619.746 117.06 619.624 117.886H625.819C625.757 117.09 625.601 116.372 625.243 115.837C624.703 115.025 623.949 114.577 622.809 114.577C621.669 114.577 620.858 115.023 620.326 115.837ZM628.263 116.069C628.045 115.247 627.505 114.417 627.151 114.037C626.591 113.435 626.045 113.015 625.503 112.78C624.794 112.476 623.945 112.276 623.014 112.276C621.93 112.276 620.945 112.457 620.147 112.833C619.347 113.209 618.674 113.721 618.147 114.359C617.62 114.995 617.223 115.753 616.971 116.613C616.717 117.47 616.589 118.402 616.589 119.386C616.589 120.387 616.721 121.32 616.984 122.159C617.248 123.005 617.671 123.749 618.243 124.366C618.813 124.988 619.547 125.474 620.427 125.813C621.3 126.151 622.361 126.326 623.58 126.324C626.088 126.315 627.409 125.756 627.953 125.455C628.05 125.402 628.141 125.308 628.026 125.039L627.458 123.448C627.373 123.211 627.132 123.299 627.132 123.299C627.077 123.319 627.021 123.341 626.962 123.363C626.347 123.599 625.447 123.943 623.567 123.939C622.22 123.937 621.221 123.54 620.595 122.919C619.953 122.283 619.639 121.348 619.583 120.029L628.269 120.037C628.269 120.037 628.498 120.033 628.521 119.811C628.522 119.805 628.523 119.792 628.526 119.773L628.526 119.772L628.526 119.771L628.526 119.771C628.565 119.49 628.783 117.895 628.263 116.069ZM550.766 115.837C550.414 116.372 550.188 117.06 550.064 117.886H556.258C556.196 117.09 556.041 116.372 555.684 115.837C555.142 115.025 554.389 114.577 553.249 114.577C552.109 114.577 551.298 115.023 550.766 115.837ZM558.7 116.069C558.483 115.247 557.945 114.417 557.591 114.037C557.031 113.435 556.485 113.015 555.943 112.78C555.234 112.476 554.384 112.276 553.454 112.276C552.371 112.276 551.385 112.457 550.587 112.833C549.787 113.209 549.114 113.721 548.587 114.359C548.06 114.995 547.663 115.753 547.411 116.613C547.159 117.47 547.029 118.402 547.029 119.386C547.029 120.387 547.161 121.32 547.424 122.159C547.688 123.005 548.111 123.749 548.683 124.366C549.253 124.988 549.987 125.474 550.867 125.813C551.74 126.151 552.801 126.326 554.02 126.324C556.528 126.315 557.849 125.756 558.393 125.455C558.49 125.402 558.581 125.308 558.466 125.039L557.9 123.448C557.813 123.211 557.572 123.299 557.572 123.299C557.517 123.319 557.461 123.341 557.402 123.363C556.787 123.599 555.888 123.943 554.005 123.939C552.66 123.937 551.661 123.54 551.035 122.919C550.393 122.283 550.079 121.348 550.024 120.029L558.709 120.037C558.709 120.037 558.938 120.033 558.961 119.811C558.962 119.804 558.964 119.791 558.966 119.77C559.005 119.484 559.221 117.893 558.7 116.069ZM530.788 123.059C530.903 123.234 530.95 123.302 531.29 123.573C531.283 123.571 532.069 124.188 533.836 124.081C535.079 124.006 536.182 123.769 536.182 123.769H536.18V119.82C536.18 119.82 535.068 119.637 533.824 119.62C532.052 119.596 531.298 120.249 531.305 120.247C530.782 120.617 530.53 121.165 530.53 121.929C530.53 122.412 530.617 122.792 530.788 123.059ZM534.746 117.47C534.393 117.444 533.936 117.429 533.39 117.429C532.645 117.429 531.926 117.523 531.251 117.705C530.572 117.886 529.962 118.17 529.437 118.546C528.912 118.92 528.481 119.41 528.177 119.978C527.87 120.55 527.714 121.225 527.714 121.98C527.714 122.749 527.846 123.417 528.111 123.964C528.376 124.512 528.758 124.969 529.245 125.321C529.727 125.673 530.323 125.932 531.014 126.087C531.695 126.243 532.468 126.322 533.313 126.322C534.203 126.322 535.091 126.25 535.952 126.102C536.803 125.957 537.849 125.746 538.139 125.68C538.343 125.631 538.546 125.579 538.748 125.524C538.964 125.471 538.946 125.24 538.946 125.24L538.942 117.297C538.942 115.555 538.477 114.264 537.561 113.463C536.65 112.665 535.307 112.261 533.572 112.261C532.92 112.261 531.872 112.351 531.245 112.477C531.245 112.477 529.347 112.844 528.566 113.455C528.566 113.455 528.395 113.562 528.489 113.801L529.104 115.453C529.181 115.666 529.388 115.594 529.388 115.594C529.388 115.594 529.454 115.568 529.531 115.523C531.202 114.614 533.315 114.642 533.315 114.642C534.255 114.642 534.976 114.83 535.463 115.203C535.937 115.566 536.178 116.114 536.178 117.271V117.639C535.431 117.532 534.746 117.47 534.746 117.47ZM604.67 112.683C604.727 112.704 604.866 112.798 604.8 112.995C604.719 113.232 604.296 114.421 604.147 114.818C604.091 114.969 603.997 115.072 603.831 115.052C603.831 115.052 603.331 114.935 602.877 114.935C602.561 114.935 602.114 114.976 601.711 115.1C601.316 115.221 600.955 115.437 600.637 115.744C600.322 116.054 600.065 116.485 599.878 117.023C599.685 117.567 599.589 118.434 599.589 119.303V125.775C599.59 125.92 599.472 126.038 599.327 126.039H597.045C596.9 126.039 596.78 125.92 596.78 125.775V112.82C596.78 112.672 596.885 112.555 597.03 112.555H599.256C599.401 112.555 599.506 112.672 599.506 112.82V113.876C599.839 113.43 600.437 113.037 600.975 112.794C601.517 112.551 602.123 112.367 603.214 112.433C603.784 112.47 604.522 112.625 604.67 112.683Z" fill="white"/>
<path fill-rule="evenodd" clip-rule="evenodd" d="M582.523 106.786C582.852 106.847 583.103 106.905 583.381 106.99C583.441 107.014 583.609 107.097 583.541 107.294L582.877 109.117C582.821 109.253 582.783 109.337 582.499 109.251C582.429 109.23 582.324 109.2 582.055 109.142C581.861 109.102 581.603 109.072 581.342 109.072C580.999 109.072 580.685 109.114 580.409 109.204C580.14 109.292 579.895 109.443 579.681 109.657C579.466 109.874 579.21 110.193 579.073 110.583C578.802 111.367 578.67 112.193 578.628 112.458C578.621 112.504 578.616 112.534 578.614 112.543H581.391C581.624 112.543 581.696 112.649 581.675 112.822L581.351 114.628C581.301 114.891 581.06 114.882 581.06 114.882H578.2L576.242 125.954C576.038 127.098 575.779 128.08 575.478 128.87C575.175 129.671 574.857 130.255 574.351 130.815C573.881 131.331 573.352 131.713 572.746 131.933C572.142 132.151 571.412 132.264 570.613 132.264C570.231 132.264 569.824 132.258 569.341 132.145C568.993 132.061 568.803 132.002 568.547 131.912C568.438 131.871 568.353 131.737 568.413 131.564C568.475 131.391 568.987 129.984 569.057 129.799C569.147 129.575 569.371 129.66 569.371 129.66C569.527 129.726 569.636 129.771 569.841 129.811C570.048 129.854 570.328 129.888 570.537 129.888C570.915 129.888 571.26 129.841 571.559 129.741C571.922 129.619 572.131 129.41 572.353 129.128C572.584 128.834 572.77 128.431 572.96 127.892C573.154 127.346 573.329 126.627 573.481 125.752L575.427 114.882H573.508C573.278 114.882 573.203 114.773 573.227 114.602L573.549 112.795C573.6 112.534 573.839 112.543 573.839 112.543H575.811L575.918 111.956C576.213 110.212 576.8 108.886 577.664 108.015C578.533 107.14 579.771 106.696 581.342 106.696C581.793 106.696 582.19 106.726 582.523 106.786ZM544.329 126.038C544.474 126.038 544.579 125.92 544.579 125.775V107.238C544.579 107.093 544.474 106.976 544.329 106.976H542.026C541.881 106.976 541.778 107.093 541.778 107.238V125.775C541.778 125.92 541.881 126.038 542.026 126.038H544.329Z" fill="white"/>
<rect x="719" y="73" width="220" height="100" fill="white"/>
<path fill-rule="evenodd" clip-rule="evenodd" d="M722 106.092L740.519 94L753.476 104.816L734.804 116.345L722 106.092ZM753.476 127.875L740.519 138.69L722 126.599L734.804 116.345L753.476 127.875ZM753.477 127.875L753.476 127.875V127.875L753.477 127.875ZM753.477 127.875L772.148 116.346L784.953 126.6L766.435 138.69L753.477 127.875ZM766.435 94L784.953 106.092L772.148 116.345L753.476 104.816L766.435 94Z" fill="#A2C1EE" fill-opacity="0.297328"/>
<path d="M753.515 130.202L740.519 140.985L734.959 137.355V141.425L753.515 152.553L772.071 141.425V137.355L766.511 140.986L753.515 130.202H753.515Z" fill="#A2C1EE" fill-opacity="0.297328"/>
<path fill-rule="evenodd" clip-rule="evenodd" d="M854.927 146.823V114.596V114.595H861.14V118.209C861.971 116.645 863.293 114.253 866.571 114.253C868.186 114.253 869.997 114.937 871.171 116.109C873.52 118.501 874.302 122.261 874.302 126.315C874.302 129.732 873.812 139.01 866.131 139.01C863.503 139.01 862.279 137.707 861.545 136.925L861.532 136.912V146.823H854.927ZM833.321 126.609C833.321 119.088 835.963 114.059 843.154 114.059V114.058C850.298 114.058 852.94 119.088 852.94 126.608C852.94 134.323 850.151 139.157 843.106 139.157C836.158 139.157 833.321 134.372 833.321 126.609ZM794.381 138.669H802.943C805.438 138.669 808.96 138.669 811.848 136.423C815.371 133.736 817.181 128.268 817.181 122.164C817.181 106.148 807.053 106.099 802.062 106.099H794.381V138.669H794.381ZM801.525 111.715H802.748C805.635 111.715 809.598 112.057 809.598 122.066C809.598 132.711 805.586 133.054 802.748 133.054H801.525V111.715ZM819.641 138.669V114.596H825.559V120.406L825.559 120.405C826.147 118.354 827.322 114.253 831.234 114.253C831.725 114.253 832.066 114.303 832.408 114.401V120.945C831.821 120.846 831.529 120.846 831.283 120.846C826.343 120.846 826.343 126.413 826.343 128.269V138.669H819.641ZM843.154 118.746C845.21 118.746 845.992 120.406 845.992 126.609C845.992 133.054 845.111 134.47 843.154 134.47C841.148 134.47 840.268 133.005 840.268 126.608C840.268 120.7 840.953 118.746 843.106 118.746H843.154ZM861.533 124.264C861.533 122.116 861.533 118.698 864.566 118.698C867.158 118.698 867.354 122.067 867.354 126.315C867.354 131.394 867.111 134.372 864.37 134.372C861.533 134.373 861.533 132.321 861.533 128.854V124.264H861.533ZM882.903 123.093C882.903 121.872 882.903 120.651 883.688 119.723C884.176 119.088 884.959 118.698 885.84 118.698C887.748 118.698 888.775 120.31 888.775 126.657C888.775 132.859 887.846 134.518 885.741 134.518C882.903 134.518 882.903 131.393 882.903 128.658V123.093ZM876.298 138.67V106.1L882.903 106.1V116.843C883.737 115.818 885.056 114.254 887.942 114.254C893.864 114.254 895.723 120.652 895.723 126.462C895.723 128.708 895.43 135.936 891.026 138.231C889.705 138.913 888.384 139.157 887.111 139.157C883.267 139.157 882.133 136.791 881.544 135.565L881.535 135.545C881.045 136.473 880.8 136.961 880.261 138.67H876.298ZM907.241 118.746C909.293 118.746 910.078 120.406 910.078 126.609C910.078 133.054 909.197 134.47 907.241 134.47C905.235 134.47 904.352 133.005 904.352 126.608C904.352 120.7 905.038 118.746 907.191 118.746H907.241ZM897.406 126.609C897.406 119.088 900.048 114.059 907.241 114.059V114.058C914.383 114.058 917.025 119.088 917.025 126.608C917.025 134.323 914.236 139.157 907.191 139.157C900.245 139.157 897.406 134.372 897.406 126.609Z" fill="#A2C1EE" fill-opacity="0.297328"/>
<path d="M916.765 114.596L922.979 126.365L915.837 138.669H921.658L925.719 131.444L929.241 138.669H936.531L929.339 125.192L935.552 114.596H929.732L926.648 120.162L924.056 114.596H916.765Z" fill="#A2C1EE" fill-opacity="0.297328"/>
<rect x="979" y="73" width="220" height="100" fill="white"/>
<path fill-rule="evenodd" clip-rule="evenodd" d="M1106.83 102.379V136.397C1106.83 138.618 1106.95 141.858 1107.07 143.897H1102.21L1101.85 140.358H1101.67C1100.71 142.397 1098.49 144.378 1095.56 144.378C1090.16 144.378 1086.86 138.497 1086.86 129.439C1086.86 119.119 1091.23 114.259 1095.86 114.259C1098.19 114.259 1100.05 115.34 1101.07 117.559H1101.19V102.379H1106.83ZM1067.05 143.896L1069.45 132.738H1077.84L1080.18 143.896H1085.76L1077.18 103.458H1070.65L1061.53 143.896H1067.05ZM1075.32 118.577L1077.18 128.238H1070.11L1072.03 118.577C1072.56 115.997 1073.17 112.278 1073.58 109.338H1073.83C1074.24 112.219 1074.78 115.817 1075.32 118.577ZM1101.13 124.037C1101.19 124.639 1101.19 125.299 1101.19 125.838V133.639C1101.19 134.297 1101.13 135.018 1101.01 135.498C1100.05 138.977 1098.37 139.637 1097.11 139.637C1094.11 139.637 1092.55 135.438 1092.55 129.438C1092.55 124.037 1093.75 119.118 1097.29 119.118C1099.33 119.118 1100.83 121.398 1101.13 124.037ZM1120.27 144.377C1114.45 144.377 1110.25 139.397 1110.25 129.379C1110.25 118.758 1115.23 114.258 1120.57 114.258C1126.33 114.258 1130.47 119.418 1130.47 129.258C1130.47 140.838 1124.77 144.377 1120.33 144.377H1120.27ZM1124.71 129.319C1124.71 133.758 1123.93 139.938 1120.45 139.938H1120.39C1116.73 139.938 1115.89 134.178 1115.89 129.319C1115.89 124.938 1116.61 118.699 1120.33 118.699C1123.93 118.699 1124.71 124.938 1124.71 129.319ZM1133.87 102.379H1139.51V118.038H1139.63C1141.13 115.399 1143.17 114.258 1145.75 114.258C1150.72 114.258 1153.85 119.898 1153.85 128.838C1153.85 139.277 1149.59 144.377 1144.79 144.377C1141.91 144.377 1140.29 142.816 1139.02 140.236H1138.79L1138.49 143.896H1133.63C1133.75 141.917 1133.87 138.617 1133.87 136.396V102.379ZM1139.75 135.377C1139.57 134.898 1139.51 134.238 1139.51 133.576H1139.5V125.418C1139.5 124.819 1139.56 124.038 1139.68 123.438C1140.1 121.338 1141.6 119.118 1143.46 119.118C1146.83 119.118 1148.14 123.618 1148.14 129.198C1148.14 135.198 1146.88 139.637 1143.52 139.637C1142.39 139.637 1140.64 138.918 1139.75 135.377ZM1162.17 130.457C1162.23 137.957 1165.47 139.816 1168.89 139.816C1170.93 139.816 1172.67 139.337 1173.93 138.736L1174.77 142.816C1173.03 143.716 1170.39 144.197 1167.81 144.197C1160.49 144.197 1156.65 138.677 1156.65 129.677C1156.65 120.137 1161.03 114.257 1167.09 114.257C1173.15 114.257 1175.97 120.077 1175.97 127.398C1175.97 128.837 1175.91 129.738 1175.85 130.517L1162.17 130.457ZM1166.67 118.519C1168.89 118.519 1170.69 121.278 1170.63 126.438H1162.23C1162.41 122.779 1163.73 118.519 1166.67 118.519Z" fill="#A2C1EE" fill-opacity="0.297328"/>
<path fill-rule="evenodd" clip-rule="evenodd" d="M1029.74 103.566H1046.59V143.896L1029.74 103.566ZM1017.87 103.566H1001.01V143.896L1017.87 103.566ZM1023.81 118.429L1034.54 143.896H1027.51L1024.3 135.785H1016.44L1023.81 118.429Z" fill="#A2C1EE" fill-opacity="0.297328"/>
<path fill-rule="evenodd" clip-rule="evenodd" d="M1048.81 103.566C1049.15 103.568 1049.48 103.706 1049.72 103.949C1049.96 104.193 1050.09 104.522 1050.08 104.863C1050.08 105.595 1049.52 106.166 1048.8 106.166C1048.09 106.166 1047.52 105.596 1047.52 104.863C1047.51 104.52 1047.65 104.191 1047.89 103.948C1048.13 103.704 1048.46 103.567 1048.8 103.566H1048.81ZM1176.39 114.566C1176.15 114.323 1175.83 114.185 1175.49 114.183H1175.48C1175.14 114.184 1174.81 114.321 1174.57 114.565C1174.33 114.808 1174.19 115.137 1174.19 115.48C1174.19 116.213 1174.77 116.783 1175.48 116.783C1176.2 116.783 1176.76 116.212 1176.76 115.48C1176.77 115.139 1176.63 114.81 1176.39 114.566ZM1174.44 115.48C1174.44 114.875 1174.91 114.384 1175.48 114.384H1175.49C1176.06 114.384 1176.52 114.875 1176.52 115.486C1176.52 116.097 1176.06 116.587 1175.49 116.581C1174.91 116.581 1174.44 116.097 1174.44 115.48ZM1175.24 116.236H1175.01V114.788L1175.03 114.785C1175.14 114.769 1175.26 114.753 1175.42 114.753C1175.64 114.753 1175.78 114.8 1175.87 114.863C1175.95 114.926 1176 115.024 1176 115.163C1176 115.353 1175.87 115.469 1175.72 115.515V115.526C1175.84 115.549 1175.93 115.665 1175.96 115.878C1175.99 116.103 1176.03 116.189 1176.05 116.236H1175.81C1175.78 116.189 1175.74 116.057 1175.71 115.867C1175.68 115.682 1175.59 115.613 1175.4 115.613H1175.24V116.236H1175.24ZM1175.41 115.434H1175.24V114.944C1175.28 114.938 1175.33 114.932 1175.41 114.932C1175.67 114.932 1175.76 115.059 1175.76 115.186C1175.76 115.365 1175.6 115.434 1175.41 115.434ZM1047.76 104.863C1047.76 104.258 1048.23 103.767 1048.8 103.767H1048.81C1049.38 103.767 1049.85 104.258 1049.85 104.869C1049.85 105.48 1049.38 105.97 1048.81 105.964C1048.23 105.964 1047.76 105.48 1047.76 104.863ZM1048.56 105.619H1048.33V104.171C1048.47 104.149 1048.6 104.137 1048.74 104.137C1048.96 104.137 1049.1 104.182 1049.19 104.246C1049.28 104.309 1049.32 104.408 1049.32 104.546C1049.32 104.736 1049.19 104.852 1049.04 104.898V104.909C1049.17 104.932 1049.25 105.048 1049.28 105.262C1049.32 105.487 1049.35 105.573 1049.37 105.62H1049.13C1049.1 105.573 1049.06 105.441 1049.03 105.251C1049 105.066 1048.91 104.997 1048.72 104.997H1048.56V105.619ZM1048.73 104.817H1048.56V104.327C1048.6 104.321 1048.65 104.315 1048.73 104.315C1048.99 104.315 1049.08 104.442 1049.08 104.569C1049.08 104.748 1048.92 104.817 1048.73 104.817Z" fill="#EDEEFB"/>
<rect x="1239" y="73" width="220" height="100" fill="white"/>
<path fill-rule="evenodd" clip-rule="evenodd" d="M1355.37 99.6343L1344.64 101.931V101.931V93.2544L1355.37 91V99.6343ZM1311.74 95.934L1301.3 98.1456L1301.26 132.215C1301.26 138.51 1306.01 143.146 1312.34 143.146C1315.85 143.146 1318.41 142.508 1319.83 141.743V133.108C1318.46 133.661 1311.7 135.618 1311.7 129.323V114.223H1319.83V105.164H1311.7L1311.74 95.934ZM1282.82 115.967C1282.82 114.309 1284.19 113.67 1286.46 113.67C1289.71 113.67 1293.82 114.649 1297.07 116.393V106.397C1293.52 104.994 1290.01 104.441 1286.46 104.441C1277.77 104.441 1272 108.949 1272 116.478C1272 123.564 1277.92 125.691 1282.62 127.377C1285.7 128.484 1288.26 129.401 1288.26 131.407C1288.26 133.364 1286.54 134.002 1284.15 134.002C1280.6 134.002 1276.06 132.555 1272.47 130.599V140.722C1276.45 142.423 1280.47 143.146 1284.15 143.146C1293.05 143.146 1299.16 138.766 1299.16 131.152C1299.14 123.296 1292.87 121.175 1288.1 119.564C1285.18 118.575 1282.82 117.778 1282.82 115.967ZM1332.44 105.164L1333.13 108.311C1335.65 103.717 1340.66 104.653 1342.03 105.164V114.946C1340.7 114.479 1336.42 113.883 1333.9 117.158V142.381H1323.21V105.164H1332.44ZM1344.64 105.164H1355.37V142.381H1344.64V105.164ZM1377.7 104.441C1373.51 104.441 1370.82 106.397 1369.32 107.758L1368.76 105.121H1359.35V154.715L1370.05 152.461L1370.09 140.424C1371.63 141.53 1373.9 143.104 1377.66 143.104C1385.32 143.104 1392.29 136.979 1392.29 123.496C1392.25 111.161 1385.19 104.441 1377.7 104.441ZM1370.09 131.747C1371.12 132.853 1372.61 133.746 1375.14 133.746C1379.07 133.746 1381.73 129.493 1381.73 123.793C1381.73 118.222 1379.03 113.883 1375.14 113.883C1372.7 113.883 1371.16 114.734 1370.05 115.967L1370.09 131.747ZM1426 123.921C1426 113.032 1420.7 104.441 1410.56 104.441C1400.38 104.441 1394.22 113.033 1394.22 123.836C1394.22 136.639 1401.49 143.104 1411.93 143.104C1417.02 143.104 1420.87 141.955 1423.78 140.339V131.832C1420.87 133.279 1417.53 134.172 1413.29 134.172C1409.15 134.172 1405.47 132.726 1405 127.707H1425.91C1425.91 127.473 1425.93 126.941 1425.95 126.329L1425.95 126.326C1425.97 125.492 1426 124.509 1426 123.921ZM1410.51 113.075C1407.82 113.075 1404.87 115.074 1404.87 119.88H1415.9C1415.9 115.074 1413.12 113.075 1410.51 113.075Z" fill="#A2C1EE" fill-opacity="0.297328"/>
<rect x="1499" y="73" width="220" height="100" fill="white"/>
<path d="M1587.9 133.092C1580.89 138.195 1570.72 140.917 1561.97 140.917C1549.69 140.917 1538.64 136.437 1530.28 128.985C1529.63 128.399 1530.21 127.6 1531 128.057C1540.02 133.237 1551.18 136.354 1562.7 136.354C1570.47 136.354 1579.02 134.767 1586.88 131.474C1588.07 130.976 1589.06 132.241 1587.9 133.092Z" fill="#A2C1EE" fill-opacity="0.297328"/>
<path d="M1590.82 129.799C1589.92 128.668 1584.89 129.265 1582.63 129.529C1581.94 129.612 1581.84 129.021 1582.46 128.596C1586.47 125.811 1593.04 126.615 1593.81 127.548C1594.58 128.487 1593.61 134.995 1589.84 138.101C1589.27 138.578 1588.72 138.324 1588.97 137.692C1589.82 135.607 1591.72 130.934 1590.82 129.799Z" fill="#A2C1EE" fill-opacity="0.297328"/>
<path fill-rule="evenodd" clip-rule="evenodd" d="M1530.46 122.062L1530.46 122.062C1529.85 121.25 1529.27 120.482 1529.27 118.94V113.194C1529.27 112.999 1529.27 112.805 1529.27 112.612L1529.27 112.611L1529.27 112.611L1529.27 112.61L1529.27 112.61L1529.27 112.609C1529.28 110.405 1529.29 108.392 1527.62 106.852C1526.19 105.493 1523.81 105.016 1522 105.016C1518.44 105.016 1514.48 106.323 1513.64 110.658C1513.56 111.12 1513.89 111.363 1514.2 111.431L1517.82 111.814C1518.16 111.799 1518.41 111.472 1518.47 111.14C1518.78 109.647 1520.05 108.926 1521.48 108.926C1522.24 108.926 1523.12 109.206 1523.57 109.885C1524.04 110.565 1524.03 111.47 1524.03 112.281C1524.03 112.374 1524.02 112.466 1524.02 112.556V113.033C1523.67 113.072 1523.31 113.109 1522.93 113.148L1522.93 113.148L1522.93 113.148C1520.97 113.346 1518.7 113.575 1517 114.314C1514.66 115.31 1513.02 117.348 1513.02 120.34C1513.02 124.172 1515.47 126.086 1518.61 126.086C1521.27 126.086 1522.72 125.469 1524.77 123.404C1524.87 123.558 1524.97 123.699 1525.06 123.832C1525.54 124.537 1525.87 125.007 1526.91 125.863C1527.19 126.008 1527.54 125.992 1527.79 125.775L1527.8 125.785C1528.55 125.131 1529.9 123.965 1530.67 123.337C1530.97 123.088 1530.92 122.689 1530.68 122.357C1530.6 122.257 1530.53 122.16 1530.46 122.063L1530.46 122.062ZM1579.65 122.357C1579.58 122.257 1579.5 122.159 1579.43 122.062C1578.82 121.25 1578.24 120.481 1578.24 118.94V113.194C1578.24 112.998 1578.24 112.803 1578.25 112.609C1578.26 110.405 1578.27 108.392 1576.6 106.852C1575.16 105.493 1572.79 105.016 1570.97 105.016C1567.42 105.016 1563.45 106.323 1562.62 110.658C1562.53 111.12 1562.87 111.363 1563.17 111.431L1566.79 111.814C1567.14 111.799 1567.38 111.472 1567.45 111.14C1567.76 109.647 1569.02 108.926 1570.45 108.926C1571.22 108.926 1572.09 109.206 1572.54 109.885C1573.01 110.566 1573.01 111.471 1573 112.284L1573 112.284C1573 112.376 1573 112.467 1573 112.556V113.033C1572.65 113.072 1572.28 113.11 1571.91 113.148L1571.91 113.148C1569.94 113.346 1567.68 113.575 1565.97 114.314C1563.63 115.31 1561.99 117.348 1561.99 120.34C1561.99 124.172 1564.43 126.086 1567.58 126.086C1570.24 126.086 1571.69 125.469 1573.74 123.404C1573.84 123.549 1573.93 123.682 1574.02 123.807L1574.02 123.808L1574.02 123.808C1574.51 124.527 1574.83 124.998 1575.88 125.863C1576.16 126.008 1576.52 125.992 1576.77 125.775L1576.77 125.785C1577.52 125.131 1578.87 123.965 1579.64 123.337C1579.94 123.088 1579.89 122.689 1579.65 122.357ZM1651.97 119.163C1651.45 121.6 1650.2 123.483 1647.82 123.555C1644.24 123.441 1643.39 118.738 1643.39 115.517C1643.39 112.172 1644.41 107.827 1647.99 107.712C1650.24 107.785 1651.59 109.631 1651.98 111.949C1652.04 112.276 1652.26 112.566 1652.61 112.613L1654.25 112.634C1654.6 112.597 1654.89 112.328 1654.89 112.016C1654.33 107.863 1651.72 105.083 1648.06 105.083H1647.78C1642.51 105.083 1640.21 110.461 1640.21 115.714C1640.21 121.008 1642.48 126.226 1647.75 126.226H1648.03C1651.65 126.226 1654.18 123.41 1654.91 119.256C1654.94 118.914 1654.6 118.634 1654.23 118.618L1652.66 118.623C1652.31 118.623 1652.07 118.857 1651.97 119.163ZM1675.64 125.832C1675.25 125.816 1674.95 125.521 1674.95 125.147V106.224C1674.97 105.887 1675.26 105.623 1675.62 105.602H1676.99C1677.37 105.602 1677.67 105.871 1677.7 106.224V108.983C1678.68 106.795 1680.5 105.083 1682.79 105.083H1683.07C1685.51 105.083 1687.29 106.857 1687.95 109.434C1688.99 106.888 1690.93 105.083 1693.5 105.083H1693.78C1695.59 105.083 1697.34 106.234 1698.24 107.987C1699.08 109.606 1699.08 111.743 1699.08 113.574L1699.08 113.764L1699.08 125.147C1699.08 125.51 1698.78 125.806 1698.41 125.832H1696.77C1696.41 125.816 1696.12 125.567 1696.08 125.24V113.764C1696.08 113.64 1696.08 113.515 1696.08 113.389V113.388V113.386V113.385V113.383V113.382V113.381V113.379V113.378V113.376L1696.08 113.365L1696.08 113.364C1696.08 112.131 1696.09 110.853 1695.59 109.74C1695.02 108.48 1693.93 107.692 1692.77 107.635C1691.46 107.697 1690.27 108.636 1689.49 109.901C1688.51 111.479 1688.51 112.906 1688.52 114.722L1688.52 114.916V125.251C1688.47 125.562 1688.19 125.806 1687.85 125.832H1686.22C1685.83 125.816 1685.52 125.521 1685.52 125.147L1685.51 113.007C1685.51 111.892 1685.44 110.58 1684.92 109.579C1684.32 108.438 1683.24 107.692 1682.1 107.634C1680.92 107.702 1679.74 108.589 1679.03 109.621C1678.12 110.938 1677.95 112.566 1677.95 114.241V125.147C1677.95 125.51 1677.65 125.805 1677.28 125.831H1675.64V125.832ZM1534.26 125.827H1538C1538.39 125.827 1538.72 125.521 1538.72 125.142V115.113L1538.72 114.874C1538.71 112.711 1538.71 109.896 1541.3 109.896C1543.68 109.896 1543.64 112.4 1543.6 114.44L1543.6 114.44L1543.6 114.44L1543.6 114.44L1543.6 114.441V114.441V114.441V114.441V114.441V114.441V114.441V114.441V114.441V114.441V114.441V114.441V114.441C1543.6 114.672 1543.6 114.898 1543.6 115.113L1543.6 125.142C1543.6 125.505 1543.9 125.801 1544.27 125.827H1548.01C1548.4 125.827 1548.73 125.521 1548.73 125.142V115.113C1548.73 115.029 1548.72 114.941 1548.72 114.852C1548.72 113.793 1548.72 112.367 1549.07 111.488C1549.46 110.534 1550.4 109.937 1551.3 109.937C1552.39 109.937 1553.22 110.295 1553.5 111.566C1553.64 112.175 1553.63 113.585 1553.61 114.528L1553.61 114.528L1553.61 114.528C1553.61 114.756 1553.61 114.957 1553.61 115.113V125.142C1553.61 125.505 1553.91 125.8 1554.28 125.826H1558.01C1558.41 125.826 1558.73 125.52 1558.73 125.142L1558.73 113.199C1558.73 112.908 1558.74 112.611 1558.74 112.311L1558.74 112.31C1558.77 110.521 1558.81 108.63 1557.79 107.266C1556.75 105.835 1555.04 105.197 1553.47 105.197C1551.27 105.197 1549.21 106.312 1548.31 108.703C1547.26 106.312 1545.8 105.197 1543.46 105.197C1541.16 105.197 1539.45 106.312 1538.54 108.703H1538.47V106.23C1538.45 105.887 1538.16 105.612 1537.8 105.597H1534.31C1533.91 105.597 1533.59 105.898 1533.59 106.276V125.199C1533.62 125.536 1533.9 125.801 1534.26 125.827ZM1582.79 106.23V108.936C1582.79 109.341 1583.1 109.616 1583.5 109.616H1589.91L1582.54 120.05C1582.1 120.719 1582.09 121.47 1582.09 121.911V124.654C1582.09 125.049 1582.54 125.505 1582.96 125.277C1587.14 123.088 1592.16 123.301 1595.94 125.256C1596.4 125.495 1596.84 125.033 1596.84 124.639V121.75C1596.8 121.362 1596.67 120.967 1596.19 120.698C1594.04 119.505 1591.55 119.157 1589.18 119.215L1595.55 110.248C1596.13 109.445 1596.47 108.936 1596.47 108.548V106.23C1596.47 105.825 1596.16 105.545 1595.76 105.545H1583.48C1583.1 105.545 1582.79 105.82 1582.79 106.23ZM1607.04 105.198C1612.59 105.198 1615.59 109.896 1615.59 115.87C1615.59 121.642 1612.27 126.221 1607.04 126.221C1601.6 126.221 1598.64 121.523 1598.64 115.668C1598.64 109.776 1601.64 105.198 1607.04 105.198ZM1604.15 115.071C1604.15 112.764 1604.32 109.061 1607.07 109.061C1608.26 109.061 1609.1 109.574 1609.52 110.891C1610.01 112.405 1610.07 114.314 1610.07 115.911C1610.07 118.338 1609.94 122.321 1607.04 122.321C1604.15 122.321 1604.15 117.503 1604.15 115.156L1604.15 115.071ZM1622.77 125.827H1619.05C1618.68 125.801 1618.38 125.505 1618.38 125.142L1618.38 106.214C1618.41 105.867 1618.72 105.597 1619.1 105.597H1622.56C1622.88 105.612 1623.15 105.83 1623.23 106.126V109.019H1623.29C1624.34 106.432 1625.81 105.197 1628.39 105.197C1630.06 105.197 1631.7 105.794 1632.75 107.427C1633.72 108.941 1633.72 111.488 1633.72 113.318V125.23C1633.68 125.562 1633.37 125.826 1633 125.826H1629.26C1628.92 125.8 1628.63 125.551 1628.6 125.23V114.952C1628.6 114.793 1628.6 114.628 1628.6 114.46L1628.6 114.459C1628.62 112.434 1628.64 109.854 1626.26 109.854C1625.35 109.854 1624.51 110.456 1624.1 111.368C1623.57 112.525 1623.5 113.676 1623.5 114.952V125.142C1623.5 125.521 1623.17 125.827 1622.77 125.827ZM1637.9 122.601C1636.89 122.601 1636.06 123.368 1636.06 124.322C1636.06 125.272 1636.89 126.049 1637.9 126.049C1638.92 126.049 1639.74 125.272 1639.74 124.322C1639.74 123.368 1638.92 122.601 1637.9 122.601ZM1656.71 115.553C1656.71 120.89 1659.09 126.226 1664.39 126.226H1664.67C1670.04 126.226 1672.9 121.247 1672.9 115.595C1672.9 110.259 1670.31 105.083 1665.12 105.083H1664.84C1659.5 105.083 1656.71 109.942 1656.71 115.553ZM1664.78 123.638C1666.52 123.581 1667.9 122.513 1668.71 120.734C1669.44 119.137 1669.58 117.306 1669.58 115.553C1669.58 113.645 1669.37 111.654 1668.47 110.02C1667.65 108.594 1666.25 107.687 1664.77 107.635C1663.12 107.692 1661.65 108.796 1660.9 110.497C1660.24 111.97 1660.03 113.925 1660.03 115.554C1660.03 117.384 1660.27 119.5 1661.04 121.092C1661.79 122.601 1663.22 123.581 1664.78 123.638ZM1569.72 122.373C1570.76 122.373 1571.71 121.735 1572.3 120.698C1573 119.48 1573 118.333 1573 116.982L1573 116.788V115.989C1570.29 115.989 1567.44 116.56 1567.44 119.702C1567.44 121.294 1568.28 122.373 1569.72 122.373ZM1520.74 122.373C1521.79 122.373 1522.73 121.735 1523.33 120.698C1524.03 119.48 1524.03 118.334 1524.02 116.983L1524.02 116.788V115.989C1521.32 115.989 1518.47 116.56 1518.47 119.702C1518.47 121.294 1519.31 122.373 1520.74 122.373ZM1702.96 105.804C1703.86 105.804 1704.6 106.52 1704.6 107.422C1704.6 108.304 1703.87 109.045 1702.96 109.045C1702.06 109.045 1701.32 108.319 1701.32 107.422C1701.32 106.509 1702.07 105.804 1702.96 105.804ZM1701.01 107.427C1701.01 106.333 1701.91 105.493 1702.97 105.493C1704.02 105.493 1704.92 106.333 1704.92 107.427C1704.92 108.49 1704.04 109.356 1702.97 109.356C1701.9 109.356 1701.01 108.501 1701.01 107.427ZM1702.23 108.511H1702.65V107.64H1703.04C1703.19 107.64 1703.23 107.702 1703.26 107.827C1703.26 107.84 1703.28 107.943 1703.29 108.067L1703.29 108.068L1703.29 108.071C1703.31 108.243 1703.34 108.451 1703.34 108.511H1703.81C1703.76 108.414 1703.73 108.15 1703.71 107.972L1703.7 107.936L1703.7 107.913C1703.66 107.65 1703.63 107.468 1703.34 107.448L1703.35 107.446C1703.5 107.394 1703.75 107.307 1703.75 106.914C1703.75 106.343 1703.24 106.343 1702.98 106.343H1702.23V108.511ZM1702.99 106.691H1702.64V107.292H1702.98C1703.26 107.292 1703.32 107.101 1703.32 106.986C1703.32 106.691 1703.11 106.691 1702.99 106.691Z" fill="#A2C1EE" fill-opacity="0.297328"/>
</svg>
