<svg width="268" height="171" viewBox="0 0 268 171" fill="none" xmlns="http://www.w3.org/2000/svg">
<path opacity="0.15" fill-rule="evenodd" clip-rule="evenodd" d="M25.8338 127.099C18.5158 121.981 12.6615 116.378 8.4333 110.444C3.15657 103.037 0.480469 95.2385 0.480469 87.2623C0.480469 71.0991 11.7755 55.4763 32.284 43.2685C41.3564 37.8687 62.5362 30.2879 67.9736 28.3793C68.6791 28.1317 69.434 28.5365 69.6357 29.2566C69.8215 29.9199 69.4595 30.6131 68.8093 30.8409C63.6466 32.6502 42.5791 40.1715 33.6136 45.5074C13.9247 57.2268 3.08241 72.055 3.08241 87.2623C3.08241 94.6849 5.59458 101.976 10.5513 108.932C14.6077 114.623 20.25 120.016 27.3247 124.963C41.7775 135.07 83.3342 146.656 90.7275 148.668C91.3749 148.844 91.7734 149.48 91.6611 150.141C91.5335 150.893 90.8043 151.376 90.0685 151.176C82.0485 149.001 40.6473 137.456 25.8338 127.099Z" fill="url(#paint0_linear)"/>
<path opacity="0.15" fill-rule="evenodd" clip-rule="evenodd" d="M185.451 148.444C185.308 147.77 185.704 147.103 186.369 146.918C191.984 145.355 216.292 138.444 226.909 133.106C251.419 120.782 264.918 104.501 264.918 87.2624C264.918 76.8194 260.055 66.8232 250.462 57.555C243.097 50.4398 233.28 44.1126 221.282 38.7504C211.789 34.5073 191.034 28.8649 185.849 27.4831C185.179 27.3044 184.77 26.6342 184.912 25.9551C185.065 25.2279 185.782 24.7735 186.5 24.9651C191.917 26.4108 212.761 32.0898 222.341 36.3722C234.617 41.858 244.686 48.3546 252.268 55.6808C262.246 65.3215 267.52 76.2424 267.52 87.2624C267.52 105.537 253.513 122.646 228.077 135.433C217.368 140.818 193.005 147.765 187.063 149.423C186.343 149.624 185.607 149.175 185.451 148.444Z" fill="url(#paint1_linear)"/>
<path fill-rule="evenodd" clip-rule="evenodd" d="M100.561 87.0073L69.8887 69.1389C69.9574 108.892 82.494 139.163 102.289 154.136L119.819 164.348L100.561 87.0073Z" fill="#41BFC3"/>
<path fill-rule="evenodd" clip-rule="evenodd" d="M199.431 7.32817L187.345 0.284912C186.157 1.03087 184.968 1.77221 183.768 2.47075C163.737 14.1413 145.002 17.8156 129.007 14.5565C113.013 36.453 94.2779 54.607 74.2455 66.2764C72.7853 67.1276 71.3332 67.9233 69.8879 68.6901L69.8867 68.8161C69.8867 68.9249 69.889 69.0301 69.889 69.1388L100.561 87.0072L199.431 7.32817Z" fill="#0CC2C0"/>
<path fill-rule="evenodd" clip-rule="evenodd" d="M159.468 39.5352L199.431 7.32817L187.345 0.284912C186.156 1.03087 184.967 1.77221 183.767 2.47075C163.736 14.1413 145.001 17.8156 129.007 14.5565L140.314 21.9721L159.468 39.5352Z" fill="#25C1C1"/>
<path fill-rule="evenodd" clip-rule="evenodd" d="M195.075 9.88632C175.045 21.5568 156.308 25.2323 140.314 21.972C124.319 43.8686 105.585 62.0226 85.5533 73.692C84.092 74.5432 82.6398 75.3389 81.1945 76.1057L81.1934 76.2317C81.1934 132.084 105.118 166.699 140.314 170.936C175.511 125.689 199.431 63.1988 199.431 7.34658V7.22168C197.987 8.14112 196.531 9.03512 195.075 9.88632Z" fill="#51D4D9"/>
<path fill-rule="evenodd" clip-rule="evenodd" d="M122.269 92.9437L103.127 81.7913C103.169 106.601 110.992 125.494 123.346 134.839L134.287 141.211L122.269 92.9437Z" fill="#CACB32"/>
<path fill-rule="evenodd" clip-rule="evenodd" d="M183.975 43.2141L176.431 38.8193C175.689 39.2854 174.947 39.748 174.199 40.184C161.697 47.4667 150.004 49.7612 140.022 47.7258C130.04 61.3925 118.347 72.7218 105.845 80.0045C104.934 80.5365 104.027 81.0338 103.126 81.5114L103.125 81.5912L103.127 81.7913L122.269 92.9437L183.975 43.2141Z" fill="#D3D43C"/>
<path fill-rule="evenodd" clip-rule="evenodd" d="M161.469 61.352L183.975 43.2141L176.431 38.8193C175.688 39.2854 174.947 39.748 174.198 40.184C161.696 47.4667 150.003 49.7612 140.021 47.7258L147.077 52.3553L161.469 61.352Z" fill="#D1D23C"/>
<path fill-rule="evenodd" clip-rule="evenodd" d="M181.256 44.8125C168.752 52.0952 157.06 54.3897 147.077 52.3554C137.096 66.0198 125.403 77.3503 112.9 84.6329C111.99 85.1649 111.084 85.6611 110.182 86.1399L110.181 86.2185C110.181 121.076 125.113 142.679 147.077 145.324C169.045 117.085 183.975 78.0847 183.975 43.2269V43.1494C183.073 43.7219 182.167 44.2805 181.256 44.8125Z" fill="#ECED59"/>
<path fill-rule="evenodd" clip-rule="evenodd" d="M147.077 145.324C169.044 117.085 183.975 78.0847 183.975 43.2269V43.1494C183.073 43.7219 182.166 44.2805 181.255 44.8125C168.752 52.0952 157.06 54.3897 147.077 52.3554C147.077 52.3554 158.164 87.0582 147.077 145.324Z" fill="url(#paint2_linear)"/>
<path d="M109.988 36.4426H111C110 37.0001 109.208 38.5553 108.698 38.622C65.0173 44.3401 34 64.2614 34 87.0001C34 114.429 78.7002 137 134 137C189.3 137 234 114.429 234 87.0001C234 71.5097 219.623 57.0399 195.39 47.572L196.118 45.7092C221.033 55.4435 236 70.5072 236 87.0001C236 115.905 190.262 139 134 139C77.7383 139 32 115.905 32 87.0001C32 62.6745 64.6216 41.9985 109.988 36.4426Z" fill="#F4F56E"/>
<path opacity="0.3" d="M124.691 20.1628C55.5802 22.588 1 51.8092 1 87.5001C1 124.779 60.5461 155 134 155C207.454 155 267 124.779 267 87.5001C267 62.0747 239.302 39.9326 198.384 28.4221" stroke="#F4F56E" stroke-width="2"/>
<defs>
<linearGradient id="paint0_linear" x1="19.207" y1="42.2218" x2="55.3583" y2="160.752" gradientUnits="userSpaceOnUse">
<stop stop-color="#F0F084"/>
<stop offset="1" stop-color="#DCDD4D"/>
</linearGradient>
<linearGradient id="paint1_linear" x1="229.976" y1="149.79" x2="229.976" y2="24.908" gradientUnits="userSpaceOnUse">
<stop stop-color="#DBDC66"/>
<stop offset="1" stop-color="#F1F25B"/>
</linearGradient>
<linearGradient id="paint2_linear" x1="172.918" y1="58.4587" x2="147.077" y2="58.4587" gradientUnits="userSpaceOnUse">
<stop stop-color="#E3E45F"/>
<stop offset="1" stop-color="#DCDD4D"/>
<stop offset="1" stop-color="#EEEF66"/>
</linearGradient>
</defs>
</svg>
