<svg width="223" height="193" viewBox="0 0 223 193" fill="none" xmlns="http://www.w3.org/2000/svg">
<path fill-rule="evenodd" clip-rule="evenodd" d="M112.026 48.3691C109.299 46.7536 105.923 46.2768 102.148 47.0861C99.8204 47.5881 97.3425 48.5793 94.7723 50.0913C92.3036 51.5469 89.9394 53.3725 87.6982 55.49L96.7799 60.8761C99.0211 58.7587 101.385 56.933 103.854 55.4774C106.424 53.9623 108.902 52.9742 111.229 52.4722C115.005 51.6629 118.38 52.1366 121.107 53.7553L112.026 48.3691Z" fill="#DCDD4D"/>
<path fill-rule="evenodd" clip-rule="evenodd" d="M79.3903 41.9155C76.2145 40.0869 72.2836 39.55 67.8914 40.4673C65.18 41.0349 62.2921 42.1548 59.299 43.8699C54.3094 46.7232 49.6325 50.8713 45.5746 55.7742C38.1058 64.8006 32.7417 76.3827 31.4417 87.1702C29.2008 87.6703 26.7988 88.6214 24.335 90.0297C20.0357 92.4903 16.0026 96.0616 12.505 100.286C5.01445 109.325 -0.0308109 121.346 0.000141626 131.811C0.0218084 139.442 2.73634 144.814 7.11922 147.339L16.2626 152.607C11.8797 150.082 9.16518 144.71 9.14352 137.079C9.11257 126.614 14.1578 114.593 21.6483 105.551C25.1491 101.33 29.1791 97.7583 33.4784 95.2977C35.9422 93.8894 38.3472 92.9383 40.5851 92.4351C41.8851 81.6507 47.2492 70.0655 54.718 61.0421C58.7759 56.1393 63.4559 51.9912 68.4424 49.1348C71.4355 47.4228 74.3233 46.2998 77.0379 45.7353C81.43 44.8179 85.3579 45.3548 88.5336 47.1834L79.3903 41.9155Z" fill="#DCDD4D"/>
<path fill-rule="evenodd" clip-rule="evenodd" d="M68.3355 48.7569C82.4417 40.641 94.1675 45.788 96.2546 60.1277C98.5053 58.0511 100.88 56.2605 103.359 54.833C116.804 47.0986 127.746 53.3102 127.789 68.7082C127.835 84.1032 116.965 102.867 103.516 110.604L33.618 150.818C20.1509 158.565 9.23085 152.341 9.18763 136.943C9.14441 121.545 19.9934 102.796 33.4605 95.0464C35.9181 93.6343 38.317 92.6806 40.5492 92.176C42.5498 75.4858 54.2077 56.8851 68.3355 48.7569Z" fill="#EAEA59"/>
<path fill-rule="evenodd" clip-rule="evenodd" d="M183.019 55.8765C180.292 54.2577 176.916 53.7808 173.14 54.5934C170.813 55.0922 168.334 56.0835 165.764 57.5988C163.295 59.0513 160.931 60.8802 158.692 62.9947L167.775 68.3812C170.013 66.2636 172.378 64.4378 174.846 62.9821C177.417 61.47 179.895 60.4787 182.226 59.9799C185.998 59.1673 189.374 59.6442 192.101 61.2598L183.019 55.8765Z" fill="url(#paint0_linear)"/>
<path fill-rule="evenodd" clip-rule="evenodd" d="M151.218 49.4227C148.042 47.5943 144.113 47.0544 139.721 47.9717C137.012 48.5392 134.127 49.659 131.136 51.3677C126.165 54.2116 121.496 58.35 117.447 63.2463C109.971 72.2748 104.597 83.8803 103.297 94.6759C101.037 95.1882 98.6534 96.127 96.1675 97.5505C91.8769 100.005 87.8463 103.576 84.3451 107.797C76.8535 116.835 71.7983 128.86 71.8292 139.328C71.8509 146.954 74.5689 152.32 78.9524 154.845L88.0971 160.112C83.7136 157.587 80.9956 152.222 80.9739 144.592C80.9429 134.128 85.9982 122.102 93.4928 113.064C96.991 108.843 101.022 105.272 105.312 102.818C107.798 101.394 110.182 100.456 112.442 99.9433C113.742 89.1477 119.116 77.5422 126.592 68.5106C130.641 63.6175 135.309 59.479 140.281 56.6351C143.271 54.9233 146.157 53.8066 148.865 53.2391C153.258 52.3218 157.19 52.8617 160.363 54.6902L151.218 49.4227Z" fill="url(#paint1_linear)"/>
<path fill-rule="evenodd" clip-rule="evenodd" d="M139.328 56.2557C153.434 48.1407 165.159 53.3118 167.25 67.6469C169.497 65.5705 171.871 63.7801 174.35 62.3527C187.796 54.6192 198.737 60.8331 198.783 76.2264C198.826 91.6229 187.956 110.382 174.508 118.118L104.615 158.327C91.1664 166.064 80.225 159.85 80.1818 144.454C80.1385 129.06 91.0089 110.299 104.454 102.565C106.933 101.138 109.31 100.196 111.564 99.6825C113.565 82.991 125.222 64.3707 139.328 56.2557Z" fill="url(#paint2_linear)"/>
<path opacity="0.6" fill-rule="evenodd" clip-rule="evenodd" d="M145.269 121.431C155.727 117.612 164.206 106.056 164.206 95.6201C164.206 85.1843 155.727 79.8206 145.269 83.6398C134.81 87.4591 126.332 99.0151 126.332 109.451C126.332 119.887 134.81 125.25 145.269 121.431Z" fill="#74F5F9"/>
<path opacity="0.3" fill-rule="evenodd" clip-rule="evenodd" d="M129.387 119.591L169.093 150.677L222.238 100.695L156.265 83.0183C156.265 83.0183 147.102 79.361 136.106 89.7232C121.446 104.352 129.387 119.591 129.387 119.591Z" fill="url(#paint3_linear)"/>
<path opacity="0.826451" fill-rule="evenodd" clip-rule="evenodd" d="M142.825 112.886C143.5 112.886 144.047 112.34 144.047 111.667C144.047 110.993 143.5 110.448 142.825 110.448C142.151 110.448 141.604 110.993 141.604 111.667C141.604 112.34 142.151 112.886 142.825 112.886Z" fill="#F8F984"/>
<path opacity="0.238504" fill-rule="evenodd" clip-rule="evenodd" d="M178.866 114.714C179.541 114.714 180.088 114.168 180.088 113.495C180.088 112.822 179.541 112.276 178.866 112.276C178.192 112.276 177.645 112.822 177.645 113.495C177.645 114.168 178.192 114.714 178.866 114.714Z" fill="#F8F984"/>
<path opacity="0.754408" fill-rule="evenodd" clip-rule="evenodd" d="M175.201 99.4757C175.876 99.4757 176.423 98.93 176.423 98.2567C176.423 97.5834 175.876 97.0376 175.201 97.0376C174.526 97.0376 173.979 97.5834 173.979 98.2567C173.979 98.93 174.526 99.4757 175.201 99.4757Z" fill="#F8F984"/>
<path opacity="0.238504" fill-rule="evenodd" clip-rule="evenodd" d="M195.971 109.228C196.645 109.228 197.192 108.683 197.192 108.009C197.192 107.336 196.645 106.79 195.971 106.79C195.296 106.79 194.749 107.336 194.749 108.009C194.749 108.683 195.296 109.228 195.971 109.228Z" fill="#F8F984"/>
<path opacity="0.35865" fill-rule="evenodd" clip-rule="evenodd" d="M165.428 123.248C166.103 123.248 166.65 122.702 166.65 122.029C166.65 121.355 166.103 120.81 165.428 120.81C164.753 120.81 164.206 121.355 164.206 122.029C164.206 122.702 164.753 123.248 165.428 123.248Z" fill="#F8F984"/>
<path opacity="0.909598" fill-rule="evenodd" clip-rule="evenodd" d="M152.6 94.5995C153.274 94.5995 153.821 94.0537 153.821 93.3805C153.821 92.7072 153.274 92.1614 152.6 92.1614C151.925 92.1614 151.378 92.7072 151.378 93.3805C151.378 94.0537 151.925 94.5995 152.6 94.5995Z" fill="#F8F984"/>
<path opacity="0.909598" fill-rule="evenodd" clip-rule="evenodd" d="M135.881 103.161C136.711 103.161 137.384 102.49 137.384 101.661C137.384 100.833 136.711 100.161 135.881 100.161C135.051 100.161 134.378 100.833 134.378 101.661C134.378 102.49 135.051 103.161 135.881 103.161Z" fill="#F8F984"/>
<path opacity="0.909598" fill-rule="evenodd" clip-rule="evenodd" d="M155.881 133.161C156.711 133.161 157.384 132.49 157.384 131.661C157.384 130.833 156.711 130.161 155.881 130.161C155.051 130.161 154.378 130.833 154.378 131.661C154.378 132.49 155.051 133.161 155.881 133.161Z" fill="#F8F984"/>
<path opacity="0.909598" fill-rule="evenodd" clip-rule="evenodd" d="M196.881 102.161C197.711 102.161 198.384 101.49 198.384 100.661C198.384 99.8329 197.711 99.1614 196.881 99.1614C196.051 99.1614 195.378 99.8329 195.378 100.661C195.378 101.49 196.051 102.161 196.881 102.161Z" fill="#F8F984"/>
<path opacity="0.628404" fill-rule="evenodd" clip-rule="evenodd" d="M159.319 109.228C159.994 109.228 160.541 108.683 160.541 108.009C160.541 107.336 159.994 106.79 159.319 106.79C158.645 106.79 158.098 107.336 158.098 108.009C158.098 108.683 158.645 109.228 159.319 109.228Z" fill="#F8F984"/>
<path opacity="0.998158" d="M153.105 78.1468L153.709 78.1489L153.711 77.5441L153.107 77.542L153.105 78.1468ZM145.061 79.6564L145.269 80.2243L145.061 79.6564ZM153.1 79.3564L153.098 79.9612L153.703 79.9633L153.705 79.3585L153.1 79.3564ZM145.477 80.7923L145.269 80.2243L145.477 80.7923ZM137.233 85.3948L136.753 85.7628L137.121 86.2427L137.601 85.8747L137.233 85.3948ZM136.496 84.4349L136.128 83.955L135.649 84.323L136.017 84.803L136.496 84.4349ZM124.783 99.2141L125.03 98.6622L124.478 98.4149L124.231 98.9668L124.783 99.2141ZM125.887 99.7087L126.439 99.956L126.686 99.4041L126.134 99.1568L125.887 99.7087ZM125.183 119.361L125.47 119.893L126.002 119.606L125.715 119.074L125.183 119.361ZM124.118 119.935L123.586 120.222L123.873 120.755L124.405 120.467L124.118 119.935ZM145.477 126L145.269 125.432L145.477 126ZM154.092 121.183L154.461 121.663L154.94 121.294L154.571 120.814L154.092 121.183ZM133.027 126.941L132.443 126.784L132.286 127.368L132.871 127.525L133.027 126.941ZM133.34 125.772L133.497 125.188L132.913 125.031L132.756 125.616L133.34 125.772ZM145.061 124.864L145.269 125.432L145.061 124.864ZM153.354 120.225L153.833 119.856L153.464 119.377L152.985 119.745L153.354 120.225ZM163.851 82.2888L164.275 81.857L163.843 81.4335L163.419 81.8652L163.851 82.2888ZM165.514 106.97L165.258 107.517L165.805 107.774L166.062 107.226L165.514 106.97ZM164.418 106.457L163.87 106.201L163.614 106.749L164.162 107.005L164.418 106.457ZM163.004 83.1523L162.572 82.7288L162.149 83.1605L162.581 83.584L163.004 83.1523ZM153.107 77.542C150.507 77.533 147.726 78.0371 144.853 79.0884L145.269 80.2243C148.023 79.2164 150.662 78.7431 153.102 78.7516L153.107 77.542ZM153.705 79.3585L153.709 78.1489L152.5 78.1447L152.496 79.3543L153.705 79.3585ZM145.685 81.3603C148.32 80.3957 150.817 79.9532 153.098 79.9612L153.102 78.7516C150.662 78.7431 148.023 79.2164 145.269 80.2243L145.685 81.3603ZM137.601 85.8747C140.113 83.9484 142.842 82.4006 145.685 81.3603L145.269 80.2243C142.299 81.3114 139.463 82.9225 136.865 84.9149L137.601 85.8747ZM136.017 84.803L136.753 85.7628L137.712 85.0267L136.976 84.0669L136.017 84.803ZM144.853 79.0884C141.756 80.2222 138.813 81.8967 136.128 83.955L136.865 84.9149C139.463 82.9225 142.299 81.3114 145.269 80.2243L144.853 79.0884ZM124.231 98.9668C122.471 102.894 121.457 107.046 121.457 111.101H122.667C122.667 107.245 123.632 103.261 125.335 99.4614L124.231 98.9668ZM126.134 99.1568L125.03 98.6622L124.536 99.766L125.639 100.261L126.134 99.1568ZM123.877 111.101C123.877 107.444 124.793 103.628 126.439 99.956L125.335 99.4614C123.632 103.261 122.667 107.245 122.667 111.101H123.877ZM125.715 119.074C124.548 116.91 123.877 114.232 123.877 111.101H122.667C122.667 114.406 123.376 117.285 124.65 119.648L125.715 119.074ZM124.405 120.467L125.47 119.893L124.896 118.829L123.831 119.403L124.405 120.467ZM121.457 111.101C121.457 114.579 122.204 117.66 123.586 120.222L124.65 119.648C123.376 117.285 122.667 114.406 122.667 111.101H121.457ZM145.685 126.568C148.802 125.427 151.763 123.739 154.461 121.663L153.723 120.704C151.111 122.714 148.258 124.338 145.269 125.432L145.685 126.568ZM132.871 127.525C136.648 128.537 141.05 128.264 145.685 126.568L145.269 125.432C140.824 127.059 136.679 127.293 133.184 126.356L132.871 127.525ZM132.756 125.616L132.443 126.784L133.611 127.097L133.924 125.929L132.756 125.616ZM144.853 124.296C140.598 125.854 136.71 126.049 133.497 125.188L133.184 126.356C136.679 127.293 140.824 127.059 145.269 125.432L144.853 124.296ZM152.985 119.745C150.46 121.689 147.714 123.249 144.853 124.296L145.269 125.432C148.258 124.338 151.111 122.714 153.723 120.704L152.985 119.745ZM154.571 120.814L153.833 119.856L152.875 120.594L153.612 121.552L154.571 120.814ZM169.081 94.5558C169.081 89.2441 167.336 84.8599 164.275 81.857L163.428 82.7205C166.219 85.4591 167.871 89.5122 167.871 94.5558H169.081ZM166.062 107.226C167.972 103.141 169.081 98.795 169.081 94.5558H167.871C167.871 98.5875 166.816 102.759 164.966 106.713L166.062 107.226ZM164.162 107.005L165.258 107.517L165.77 106.422L164.674 105.909L164.162 107.005ZM166.661 94.5558C166.661 98.38 165.659 102.377 163.87 106.201L164.966 106.713C166.816 102.759 167.871 98.5875 167.871 94.5558H166.661ZM162.581 83.584C165.103 86.0584 166.661 89.7806 166.661 94.5558H167.871C167.871 89.5122 166.219 85.4591 163.428 82.7205L162.581 83.584ZM163.419 81.8652L162.572 82.7288L163.436 83.5758L164.283 82.7123L163.419 81.8652Z" fill="#78FBFF"/>
<path fill-rule="evenodd" clip-rule="evenodd" d="M185.419 40.862L178.677 36.926C177.576 28.9011 174.866 22.3962 170.613 17.5396C168.818 15.4998 166.783 13.8177 164.538 12.5088L171.279 16.4448C173.524 17.7568 175.559 19.4388 177.351 21.4787C181.607 26.3322 184.314 32.8371 185.419 40.862Z" fill="#44C3C7"/>
<path fill-rule="evenodd" clip-rule="evenodd" d="M152.855 4.98756L152.854 4.98651C155.503 4.45436 171.622 5.72299 176.135 8.24497C176.135 8.24497 173.963 6.2338 169.449 3.71442C164.935 1.19503 159.677 -0.0705462 153.896 0.00303392C151.4 0.035335 148.676 0.3097 146.039 0.840025L146.029 0.833918C140.249 2.05383 134.205 4.48438 128.164 7.99241C123.683 10.5959 119.207 13.7901 114.847 17.5234L109.384 14.3017L97.7207 40.3649L104.433 44.3228L114.941 20.8401L119.086 23.6373C124.102 19.1075 129.783 14.9992 134.984 11.9773C141.022 8.46923 147.079 6.20747 152.855 4.98756Z" fill="#32A5A8"/>
<path fill-rule="evenodd" clip-rule="evenodd" d="M119.122 23.5403C124.142 19.0256 129.341 15.2175 134.547 12.2056C143.368 7.10449 152.208 4.287 160.203 4.17282C169.327 4.05247 177.159 7.3884 182.833 13.8473C187.718 19.3866 190.835 26.8516 192.101 36.0508L185.303 41.0995C184.185 33.0019 181.444 26.438 177.135 21.5406C172.126 15.8594 165.242 12.9246 157.216 13.0326C150.181 13.1283 142.432 15.6094 134.685 20.0902C130.432 22.5497 126.178 25.6141 122.048 29.2154L124.851 34.6282L104.439 44.2929L116.257 18.0442L119.122 23.5403Z" fill="#48B3B7"/>
<path fill-rule="evenodd" clip-rule="evenodd" d="M141.797 162.72L137.812 158.445L144.528 162.357L148.456 166.533L141.797 162.72Z" fill="#EAEBF9"/>
<path fill-rule="evenodd" clip-rule="evenodd" d="M130.32 150.141L150.965 136.763L156.998 140.226L136.733 153.913L130.32 150.141Z" fill="#D2D346"/>
<path fill-rule="evenodd" clip-rule="evenodd" d="M141.153 158.445L134.225 154.342L130.295 150.105L137.223 154.208L141.153 158.445Z" fill="#D2D346"/>
<path fill-rule="evenodd" clip-rule="evenodd" d="M76.0059 175.957C81.8083 179.387 89.1473 180.27 96.9598 178.605L103.818 182.465C96.0051 184.133 88.6296 183.418 82.8241 179.988L76.0059 175.957Z" fill="#D2D346"/>
<path fill-rule="evenodd" clip-rule="evenodd" d="M103.782 182.628L96.8867 178.62C97.4845 178.492 98.0853 178.352 98.6893 178.199C103.175 177.041 107.799 175.073 112.409 172.41C119.937 168.062 127.434 161.858 134.255 154.275L141.154 158.286C134.332 165.87 126.833 172.074 119.308 176.418C114.694 179.084 110.071 181.049 105.588 182.208C104.984 182.363 104.38 182.504 103.782 182.628Z" fill="#D2D346"/>
<path fill-rule="evenodd" clip-rule="evenodd" d="M57.6309 166.248L64.141 160.112L70.9944 163.986L64.4843 170.119L57.6309 166.248Z" fill="#D2D346"/>
<path fill-rule="evenodd" clip-rule="evenodd" d="M71.5783 183.495C71.4876 183.445 71.4 183.392 71.3092 183.339C65.0926 179.645 60.493 174.169 57.6396 166.239L64.5639 169.834C67.4172 177.764 72.0257 183.654 78.2392 187.348C78.3299 187.401 78.4206 187.454 78.5114 187.507L71.5783 183.495Z" fill="#E5E65B"/>
<path fill-rule="evenodd" clip-rule="evenodd" d="M157.022 140.098L148.448 166.517L144.505 162.351C136.601 171.38 127.827 178.78 119.028 183.87C113.825 186.879 108.601 189.096 103.539 190.414C93.7847 192.927 84.8632 192.016 77.7456 187.763C71.6422 184.11 67.3643 177.697 64.5615 169.856L70.9675 164.003C73.4568 170.885 77.2601 176.187 82.6443 179.405C88.9168 183.15 96.7658 183.944 105.368 181.742C109.793 180.597 114.357 178.654 118.911 176.018C126.339 171.722 133.743 165.587 140.476 158.089L136.728 153.926L157.022 140.098Z" fill="#DCDD4D"/>
<defs>
<linearGradient id="paint0_linear" x1="185.078" y1="54.9246" x2="168.8" y2="67.4561" gradientUnits="userSpaceOnUse">
<stop stop-color="#43C0C4"/>
<stop offset="1" stop-color="#37AAAD"/>
</linearGradient>
<linearGradient id="paint1_linear" x1="121.833" y1="8.95848" x2="30.7255" y2="77.1192" gradientUnits="userSpaceOnUse">
<stop stop-color="#33A8AB"/>
<stop offset="1" stop-color="#32A3A6"/>
</linearGradient>
<linearGradient id="paint2_linear" x1="152.7" y1="20.6767" x2="45.8122" y2="104.377" gradientUnits="userSpaceOnUse">
<stop stop-color="#43C0C4"/>
<stop offset="1" stop-color="#37AAAD"/>
</linearGradient>
<linearGradient id="paint3_linear" x1="125.756" y1="107.179" x2="153.144" y2="152.496" gradientUnits="userSpaceOnUse">
<stop stop-color="#ACFDFF"/>
<stop offset="1" stop-color="#74FBFF" stop-opacity="0.01"/>
</linearGradient>
</defs>
</svg>
