<svg width="214" height="208" viewBox="0 0 214 208" fill="none" xmlns="http://www.w3.org/2000/svg">
<path fill-rule="evenodd" clip-rule="evenodd" d="M72.1748 155.939L67.5476 153.865L67.0537 153.631L79.489 160.831L79.977 161.066L84.6101 163.134C84.716 163.14 84.8159 163.169 84.8982 163.216L72.4629 156.015C72.3806 155.968 72.2865 155.939 72.1748 155.939Z" fill="#F4F4FB"/>
<path fill-rule="evenodd" clip-rule="evenodd" d="M58.3634 190.763C58.2987 190.482 58.1635 190.283 57.9753 190.172L45.54 182.971C45.7282 183.083 45.8693 183.282 45.934 183.563L48.5033 188.584C48.5563 188.836 48.6739 189.006 48.8385 189.099L61.2679 196.3C61.1092 196.206 60.9916 196.036 60.9387 195.784L58.3634 190.763Z" fill="#DCDD4D"/>
<path fill-rule="evenodd" clip-rule="evenodd" d="M65.3878 137.333C65.2467 137.251 65.0644 137.227 64.8587 137.268C64.7352 137.297 64.6058 137.344 64.4706 137.426C64.3648 137.485 64.2531 137.567 64.1414 137.661L59.4259 140.707L61.9953 135.856C62.1129 135.575 62.2716 135.311 62.4598 135.089C62.6597 134.843 62.8831 134.649 63.1124 134.515C63.2477 134.438 63.3829 134.386 63.5122 134.356C63.6122 134.339 63.7063 134.333 63.7945 134.345L69.1743 134.954C69.2625 134.966 69.3389 134.989 69.4095 135.03L56.98 127.836C56.9095 127.795 56.833 127.765 56.7448 127.754L51.365 127.144C51.2768 127.133 51.1769 127.138 51.0828 127.156C50.9476 127.185 50.8182 127.238 50.683 127.32C50.4537 127.449 50.2244 127.648 50.0245 127.888C49.8422 128.111 49.6835 128.375 49.5659 128.656L45.4913 136.337L45.0504 137.098L36.8601 132.353C36.7131 132.265 36.5309 132.241 36.331 132.282C36.2075 132.306 36.084 132.359 35.9547 132.435C35.8488 132.493 35.7371 132.575 35.6254 132.669L29.5518 137.842C29.4401 137.942 29.3343 138.053 29.2402 138.17C28.7228 138.791 28.4582 139.635 28.6169 140.233L29.0109 147.064L29.0168 147.796C28.7639 148.083 28.517 148.37 28.2759 148.669C27.2117 149.964 26.2122 151.329 25.2656 152.753C25.0774 152.958 24.8658 153.133 24.6482 153.256C24.4954 153.35 24.3366 153.409 24.1837 153.444C24.0779 153.467 23.978 153.473 23.878 153.461L18.0925 154.211C18.0161 154.206 17.9338 154.217 17.8573 154.235C17.7103 154.264 17.5692 154.323 17.4222 154.405C17.1871 154.539 16.9577 154.733 16.7578 154.979C16.5756 155.207 16.4109 155.471 16.2934 155.764L13.0772 163.767C12.7597 164.54 12.8538 165.232 13.2654 165.472L18.5041 168.507C18.1513 170.153 17.8573 171.782 17.7339 173.358C17.6045 173.797 17.3634 174.231 17.0636 174.594C16.9342 174.752 16.7931 174.893 16.6461 175.016L10.9841 181.202C10.8724 181.296 10.7607 181.407 10.6607 181.53C10.1786 182.116 9.89638 182.96 10.0551 183.546L11.5368 189.668C11.6015 189.891 11.719 190.049 11.8778 190.143L20.8206 195.316L20.0974 197.917C19.7741 198.691 19.8975 199.399 20.315 199.64L32.7444 206.84C32.327 206.6 32.2094 205.891 32.5269 205.118L34.7258 197.226C34.9845 196.558 35.0198 195.931 34.8317 195.527C33.8909 194.777 33.056 193.787 32.3799 192.674L23.9662 187.799L29.0756 182.216C29.2225 182.093 29.3637 181.946 29.493 181.788C29.7929 181.431 30.0339 180.991 30.1633 180.558C30.3103 178.753 30.6042 176.902 31.0511 175.01L25.3773 171.729C25.3891 171.489 25.3949 171.243 25.5125 170.967L28.7228 162.958C28.8404 162.671 29.005 162.408 29.1931 162.179C29.3931 161.933 29.6224 161.734 29.8575 161.599C29.9986 161.517 30.1456 161.459 30.2867 161.429C30.3691 161.412 30.4455 161.406 30.5219 161.412L36.3133 160.662C36.4074 160.674 36.5132 160.662 36.6132 160.644C36.766 160.609 36.9248 160.545 37.0777 160.457C37.3011 160.334 37.5127 160.158 37.7009 159.947C38.6475 158.529 39.6412 157.164 40.7112 155.864C40.9523 155.571 41.1992 155.284 41.4462 154.996L41.4403 154.264L41.0464 147.433C40.8876 146.835 41.1522 145.992 41.6696 145.365C41.7637 145.248 41.8695 145.142 41.9812 145.043L45.8265 141.768L52.5997 145.687C52.7467 145.775 52.9172 145.804 53.1113 145.787C54.587 145.107 56.0275 144.615 57.3975 144.328C57.421 144.322 57.4445 144.316 57.468 144.31L57.9208 143.537L58.3911 142.646L69.7446 149.22L70.3796 148.857L76.5767 144.861C76.6825 144.761 76.7942 144.685 76.9 144.621C77.0353 144.545 77.1705 144.492 77.294 144.468C77.4939 144.427 77.6761 144.451 77.8231 144.533L65.3878 137.333Z" fill="#DCDD4D"/>
<path fill-rule="evenodd" clip-rule="evenodd" d="M49.1964 157.503C49.9981 158.046 50.6004 159.018 50.8888 160.405C51.6226 163.78 50.2611 168.617 47.784 172.131C47.2877 172.831 46.749 173.478 46.1764 174.05C45.6504 174.579 45.1245 175.013 44.607 175.363C43.9368 175.812 43.2794 176.113 42.6559 176.266C41.6549 176.508 40.7472 176.375 40.0049 175.876L43.2811 185.156C44.0191 185.655 50.6258 182.573 51.6226 182.332C52.2461 182.179 52.9036 181.878 53.578 181.424C54.0912 181.078 54.6172 180.644 55.1431 180.116C55.72 179.543 56.2587 178.897 56.7507 178.196C59.232 174.682 62.0486 170.502 61.3148 167.121C61.0264 165.735 62.1165 159.248 61.3148 158.705L49.1964 157.503Z" fill="#DCDD4D"/>
<path fill-rule="evenodd" clip-rule="evenodd" d="M53.2466 179.679C58.0502 175.578 60.9959 168.284 59.7847 163.474C58.7734 159.355 55.0693 158.318 51.0182 160.65C50.3244 161.048 49.6189 161.552 48.9133 162.15C44.1097 166.292 41.1582 173.545 42.34 178.419C43.3748 182.503 47.0319 183.558 51.077 181.232C51.7885 180.822 52.5175 180.306 53.2466 179.679ZM79.6753 151.13C79.8282 151.856 79.4166 152.911 78.7052 153.497L73.0431 159.637C72.5551 160.088 72.1788 160.691 71.9966 161.312C71.8496 163.122 71.5556 164.968 71.0735 166.843L71.5615 167.077L76.1946 169.145C76.8296 169.169 77.0236 170.006 76.6473 170.909L73.437 178.912C73.196 179.497 72.7609 179.995 72.3199 180.247C72.0847 180.388 71.8496 180.452 71.6379 180.423L65.8465 181.208C65.6055 181.191 65.335 181.267 65.0704 181.419C64.847 181.548 64.6294 181.73 64.4237 181.946C63.3007 183.628 62.0248 185.303 60.7136 186.879V187.565L61.1076 194.443C61.2604 195.169 60.8548 196.224 60.1374 196.81L54.0991 202.007C53.9992 202.083 53.9051 202.153 53.8051 202.206C53.1995 202.557 52.6527 202.423 52.5234 201.796L49.9481 196.775C49.8364 196.277 49.4954 196.042 49.0427 196.089C47.5434 196.781 46.0794 197.279 44.6506 197.583L44.2391 198.333L40.1234 205.996C39.8823 206.617 39.459 207.115 39.018 207.373C38.7828 207.508 38.5476 207.572 38.3242 207.549L32.9856 206.922C32.38 206.834 32.1507 206.02 32.527 205.118L34.7259 197.226C34.9846 196.558 35.0199 195.931 34.8318 195.527C33.891 194.777 33.0561 193.787 32.38 192.674L31.7391 193.043L25.5479 197.033C25.4421 197.126 25.3362 197.202 25.2363 197.261C24.666 197.589 24.1309 197.431 23.9663 196.868L22.4846 190.746C22.2965 190.037 22.7433 188.959 23.4195 188.403L29.0756 182.216C29.5636 181.806 29.9752 181.185 30.1634 180.558C30.3104 178.753 30.6043 176.902 31.0512 175.01L30.5985 174.799L25.9301 172.748C25.3304 172.666 25.1363 171.869 25.5126 170.967L28.7229 162.964C28.9698 162.361 29.4049 161.863 29.8576 161.599C30.0811 161.47 30.3104 161.4 30.522 161.412L36.3134 160.662C36.5545 160.685 36.8249 160.609 37.0777 160.457C37.3012 160.334 37.5128 160.158 37.701 159.947C38.8593 158.207 40.094 156.549 41.4463 154.996V154.264L41.0465 147.433C40.8583 146.724 41.2699 145.669 41.9813 145.043L48.0549 139.869C48.1666 139.77 48.2783 139.694 48.3842 139.629C48.9663 139.295 49.4778 139.471 49.6365 140.033L52.1706 145.078C52.3235 145.593 52.6645 145.828 53.1114 145.787C54.6165 145.095 56.0805 144.597 57.4681 144.31L57.9208 143.537L61.9954 135.856C62.2423 135.264 62.6715 134.766 63.1125 134.515C63.3477 134.38 63.5888 134.315 63.7945 134.345L69.1744 134.954C69.78 135.036 69.9681 135.833 69.5918 136.776L67.3987 144.673C67.14 145.341 67.14 145.939 67.2929 146.372C68.2336 147.117 69.0626 148.06 69.7447 149.22L70.3797 148.857L76.5767 144.861C76.6826 144.761 76.7943 144.685 76.9001 144.621C77.494 144.281 78.0231 144.445 78.1525 145.031L79.6753 151.13Z" fill="#EAEA59"/>
<path fill-rule="evenodd" clip-rule="evenodd" d="M65.0828 100.968C64.9769 100.575 64.777 100.3 64.5066 100.142L52.0771 92.9473C52.3417 93.0996 52.5416 93.3749 52.6475 93.7675L56.2399 100.874C56.334 101.22 56.5045 101.46 56.7397 101.595L69.1691 108.795C68.9398 108.66 68.7634 108.414 68.6752 108.074L65.0828 100.968Z" fill="#DCDD4D"/>
<path fill-rule="evenodd" clip-rule="evenodd" d="M92.0763 19.8368C91.8647 19.7138 91.6001 19.6787 91.3061 19.7431C91.1238 19.7783 90.9298 19.8544 90.7299 19.9716C90.5888 20.0536 90.4477 20.1532 90.3066 20.2704L81.5578 25.9064L80.6582 26.4689L93.0876 33.6633L93.9931 33.1068L102.736 27.4707C102.877 27.3535 103.024 27.2539 103.165 27.1719C103.365 27.0547 103.559 26.9786 103.741 26.9434C104.03 26.879 104.294 26.9141 104.506 27.0372L92.0763 19.8368Z" fill="#DCDD4D"/>
<path fill-rule="evenodd" clip-rule="evenodd" d="M75.6779 48.9545L63.2485 41.7542C64.8183 42.6622 65.9943 44.2968 66.5763 46.6227C67.9698 52.3467 65.3299 60.4199 60.4616 66.3255C59.4856 67.5089 58.4214 68.6045 57.2807 69.577C56.2636 70.45 55.2464 71.1765 54.241 71.7565C52.9298 72.5122 51.6422 73.0161 50.4251 73.268C48.4614 73.684 46.6681 73.4555 45.21 72.6118L57.6453 79.8122C59.0975 80.6558 60.8908 80.8785 62.8546 80.4683C64.0775 80.2106 65.3593 79.7067 66.6763 78.9509C67.6758 78.3768 68.6989 77.6503 69.7102 76.7774C70.8508 75.8048 71.9209 74.7093 72.8969 73.5258C77.7593 67.6202 80.4051 59.547 79.0116 53.823C78.4296 51.4913 77.2478 49.8626 75.6779 48.9545Z" fill="#DCDD4D"/>
<path fill-rule="evenodd" clip-rule="evenodd" d="M40.2122 95.1267L28.312 88.2369L35.5439 80.3746C35.7438 80.1988 35.9319 80.0055 36.1024 79.8004C36.5434 79.2614 36.8903 78.6228 37.0784 77.9842C37.2607 75.4709 37.7017 72.8462 38.3367 70.1629L30.2875 65.4994C30.2993 65.1537 30.2993 64.808 30.458 64.4038L35.05 53.1024C35.2264 52.6806 35.4615 52.288 35.732 51.9599C36.0025 51.6319 36.3023 51.3682 36.6081 51.1925C36.7844 51.0929 36.9608 51.0167 37.1372 50.9815C37.2842 50.9523 37.4253 50.9464 37.5664 50.9698L45.7978 49.8098C45.9448 49.8274 46.1036 49.8215 46.2682 49.7864C46.4799 49.7395 46.7092 49.6516 46.9326 49.5227C47.2207 49.3528 47.5147 49.1185 47.7851 48.8373C49.1727 46.7399 50.672 44.7069 52.2595 42.7794C52.5182 42.4689 52.771 42.1642 53.0297 41.8596V40.8284L52.4712 31.1147C52.2477 30.3004 52.6358 29.1111 53.3649 28.2264C53.506 28.0565 53.653 27.8983 53.8176 27.7577L59.2386 23.1176L68.7929 28.6482C69.0045 28.7713 69.2574 28.8181 69.5396 28.7888C71.6327 27.8397 73.7258 27.1484 75.7131 26.7324C75.719 26.7324 75.7249 26.7324 75.7366 26.7266L76.3364 25.6544L82.1336 14.7866C82.3041 14.3413 82.5452 13.9429 82.8157 13.609C83.0861 13.2809 83.3919 13.0173 83.7035 12.8415C83.8975 12.7302 84.0915 12.6482 84.2855 12.613C84.4208 12.5837 84.556 12.572 84.6795 12.5837L92.2406 13.486C92.37 13.5035 92.4876 13.5445 92.5934 13.6031L80.164 6.40281C80.0581 6.34422 79.9405 6.30321 79.8112 6.29149L72.2501 5.3834C72.1207 5.37168 71.9855 5.3834 71.8502 5.41269C71.6621 5.4537 71.4681 5.52986 71.274 5.64118C70.9624 5.8228 70.6567 6.08644 70.3862 6.41453C70.1099 6.74847 69.8747 7.14686 69.6983 7.58626L63.9011 18.4541L63.319 19.5087L51.7127 12.7829C51.501 12.6599 51.2364 12.6306 50.9542 12.6892C50.772 12.7302 50.5838 12.8064 50.3898 12.9118C50.2546 12.9938 50.1134 13.0876 49.9782 13.2047L41.3882 20.5574C41.2235 20.698 41.0707 20.8562 40.9354 21.0261C40.2064 21.9107 39.8183 23.1059 40.0417 23.9144L40.5944 33.6281L40.6003 34.6592C40.3416 34.9639 40.0829 35.2686 39.8301 35.5791C38.2426 37.5066 36.7433 39.5395 35.3557 41.6369C35.0853 41.924 34.7913 42.1584 34.4973 42.3224C34.2739 42.4513 34.0504 42.545 33.8329 42.5861C33.6742 42.6212 33.5154 42.6329 33.3625 42.6095L25.1311 43.7695C24.9959 43.7461 24.8489 43.7519 24.7019 43.7871C24.5314 43.8222 24.3491 43.8925 24.1728 43.9921C23.8729 44.1679 23.5672 44.4315 23.3026 44.7596C23.0321 45.0877 22.7911 45.4802 22.6205 45.9079L18.0286 57.2035C17.5876 58.3283 17.7346 59.3067 18.3167 59.6407L25.7073 63.9234C25.1958 66.2727 24.8077 68.5752 24.649 70.7898C24.4609 71.4225 24.114 72.0611 23.6671 72.6001C23.4966 72.811 23.3085 73.0043 23.1144 73.1801L15.13 81.8627C14.9712 81.9974 14.8242 82.1556 14.689 82.3197C13.9717 83.1867 13.5601 84.3702 13.7835 85.2197L15.912 93.8085C15.9943 94.1601 16.1648 94.4061 16.3941 94.5409L28.8294 101.741C28.5942 101.606 28.4237 101.36 28.3473 101.009L26.213 92.4142C25.9895 91.5705 26.4011 90.3871 27.1184 89.52C27.2537 89.3501 27.4006 89.1978 27.5594 89.0571L28.1415 88.4303C29.0469 89.7953 30.0759 91.0315 31.2518 92.0041C31.5163 92.5372 31.4811 93.4219 31.1048 94.3651L28.018 105.532C27.5653 106.645 27.7005 107.641 28.3061 107.992L40.7355 115.193C40.1358 114.841 39.9947 113.839 40.4474 112.726L43.5401 101.565C43.9105 100.616 43.9458 99.7375 43.6812 99.1985C42.3642 98.1088 41.1941 96.7144 40.2122 95.1267Z" fill="#DCDD4D"/>
<path fill-rule="evenodd" clip-rule="evenodd" d="M69.7097 76.7773C76.5359 70.9537 80.681 60.6952 79.0112 53.8229C77.5531 47.9994 72.3673 46.5347 66.6523 49.8214C65.6411 50.4015 64.6121 51.1338 63.5891 52.0126C56.7982 57.8127 52.6178 68.1005 54.3288 74.9493C55.7516 80.7612 60.9668 82.2376 66.6759 78.9508C67.6754 78.3767 68.6984 77.6502 69.7097 76.7773ZM107.121 36.3582C107.351 37.3893 106.751 38.8481 105.781 39.7094L97.7553 48.4154C97.0439 49.0422 96.5206 49.9035 96.2619 50.7881C96.0385 53.3191 95.6328 55.9203 94.9625 58.5919L95.6445 58.9317L102.194 61.8376C103.094 61.9196 103.364 63.0562 102.841 64.351L98.2845 75.6641C97.9435 76.5078 97.332 77.2108 96.7029 77.574C96.3736 77.7674 96.0326 77.8611 95.7327 77.8201L87.5425 78.9625C87.1721 78.9274 86.784 79.0329 86.396 79.2555C86.1079 79.4195 85.8198 79.648 85.5493 79.9351C83.9383 82.3664 82.1803 84.7158 80.2694 86.9362L80.3106 87.9439L80.8633 97.6576C81.0926 98.6477 80.4929 100.153 79.5169 100.974L70.9268 108.32C70.7681 108.461 70.6093 108.578 70.4506 108.666C69.6215 109.146 68.8983 108.918 68.6749 108.074L65.0825 100.968C64.8885 100.259 64.4005 99.9366 63.7596 100.007C61.6606 100.956 59.591 101.63 57.6037 102.04L56.9628 103.141L51.1655 114.009C50.8186 114.865 50.2072 115.591 49.5839 115.954C49.2664 116.136 48.9431 116.224 48.655 116.189L41.0585 115.304C40.1943 115.158 39.9238 114.021 40.4471 112.726L43.5397 101.565C43.9101 100.622 43.9454 99.7374 43.6808 99.1984C42.3638 98.1087 41.1938 96.7144 40.2119 95.1267L39.3476 95.6246L30.5635 101.278C30.4106 101.419 30.2519 101.53 30.099 101.618C29.2876 102.087 28.5351 101.876 28.3469 101.009L26.2126 92.4141C25.948 91.4064 26.583 89.9241 27.559 89.0571L35.5435 80.3745C36.2549 79.7535 36.8194 78.8688 37.0781 77.9841C37.2603 75.4708 37.7013 72.8461 38.3363 70.1628L37.6954 69.8406L31.1044 66.9581C30.2401 66.8526 29.9344 65.7336 30.4577 64.4037L35.0496 53.1023C35.3906 52.2645 35.9904 51.5498 36.6077 51.1924C36.9311 51.0049 37.2662 50.917 37.5661 50.9697L45.7975 49.8097C46.1385 49.8566 46.5383 49.7511 46.9322 49.5227C47.2203 49.3527 47.5143 49.1184 47.7848 48.8372C49.3958 46.4058 51.1597 44.0565 53.0294 41.8595V40.8284L52.4708 31.1147C52.2062 30.148 52.8059 28.6423 53.8172 27.7576L62.4073 20.405C62.5425 20.2878 62.6836 20.1941 62.8189 20.1121C63.6538 19.6316 64.4299 19.8367 64.6239 20.7214L68.2163 27.8221C68.4103 28.531 68.8983 28.8532 69.5392 28.7888C71.6382 27.8397 73.7431 27.1425 75.7363 26.7265L76.336 25.6544L82.1333 14.7865C82.4743 13.9077 83.074 13.1988 83.7031 12.8414C84.0324 12.6481 84.3734 12.5543 84.6791 12.5836L92.2403 13.4859C93.1104 13.5913 93.4103 14.7514 92.887 16.0461L89.765 27.2304C89.3887 28.1736 89.3534 29.0114 89.618 29.5914C90.935 30.687 92.105 32.0345 93.0869 33.6632L93.9924 33.1066L102.735 27.4706C102.876 27.3534 103.023 27.2538 103.165 27.1718C104.011 26.6796 104.764 26.8906 104.993 27.7225L107.121 36.3582Z" fill="#EAEA59"/>
<path fill-rule="evenodd" clip-rule="evenodd" d="M198.533 64.3386C198.251 64.1746 197.892 64.1336 197.469 64.2214C197.14 64.2917 196.769 64.4441 196.369 64.6784L184.146 71.082C183.828 71.2636 183.54 71.3808 183.229 71.4628L195.664 78.6631C195.97 78.5811 196.264 78.4639 196.575 78.2823L208.805 71.8787C209.204 71.6385 209.569 71.4921 209.904 71.4218C210.327 71.3339 210.686 71.3749 210.962 71.5389L198.533 64.3386Z" fill="#32A6A9"/>
<path fill-rule="evenodd" clip-rule="evenodd" d="M151.396 168.535C151.296 167.826 150.979 167.346 150.538 167.088L138.108 159.894C138.549 160.146 138.861 160.632 138.967 161.335L142.683 172.197C142.759 172.777 142.994 173.193 143.359 173.404L155.794 180.604C155.424 180.393 155.189 179.977 155.112 179.397L151.396 168.535Z" fill="#32A6A9"/>
<path fill-rule="evenodd" clip-rule="evenodd" d="M170.252 95.9169L157.822 88.7166C160.386 90.1988 162.162 93.0813 162.697 97.2234C163.673 104.951 160.027 114.829 154.012 122.129C152.184 124.343 150.138 126.323 147.933 127.935C147.151 128.503 146.375 129.013 145.605 129.452C143.8 130.489 142.047 131.174 140.395 131.52C137.72 132.083 135.304 131.766 133.34 130.63L145.775 137.83C147.733 138.966 150.15 139.283 152.825 138.72C154.483 138.375 156.235 137.689 158.034 136.652C158.804 136.213 159.58 135.703 160.362 135.135C162.567 133.524 164.613 131.544 166.442 129.329C172.463 122.029 176.102 112.151 175.132 104.424C174.591 100.282 172.815 97.3991 170.252 95.9169Z" fill="#32A6A9"/>
<path fill-rule="evenodd" clip-rule="evenodd" d="M120.375 155.084L107.946 147.884C108.969 150.391 110.292 152.559 111.838 154.381C112.103 155.265 111.956 156.508 111.397 157.697L105.988 172.988C105.235 174.564 105.329 176.122 106.217 176.632L118.653 183.832C117.765 183.317 117.665 181.764 118.417 180.188L123.827 164.891C124.385 163.708 124.532 162.46 124.268 161.581C122.721 159.759 121.398 157.591 120.375 155.084Z" fill="#32A6A9"/>
<path fill-rule="evenodd" clip-rule="evenodd" d="M153.754 59.6634C153.507 59.64 153.272 59.5755 153.072 59.4525L165.502 66.6528C165.707 66.77 165.937 66.8403 166.19 66.8579C167.507 66.4185 168.8 66.0728 170.058 65.8092C171.522 65.4987 172.951 65.3112 174.345 65.2233L175.279 63.7821L184.075 49.5103C184.287 49.0651 184.552 48.6549 184.84 48.3034C185.216 47.8464 185.645 47.4773 186.068 47.2313C186.327 47.0848 186.58 46.9794 186.827 46.9266C187.086 46.8739 187.338 46.8739 187.562 46.9442L197.122 49.8384C197.228 49.8677 197.328 49.9087 197.416 49.9614L184.987 42.7611C184.898 42.7084 184.798 42.6674 184.693 42.6381L175.132 39.7439C174.903 39.6794 174.656 39.6736 174.397 39.7322C174.151 39.779 173.892 39.8845 173.639 40.031C173.21 40.277 172.786 40.6461 172.41 41.1031C172.116 41.4605 171.858 41.8647 171.64 42.31L162.844 56.5817L161.909 58.0288C160.516 58.1109 159.093 58.3042 157.629 58.6088C156.365 58.8725 155.077 59.2182 153.754 59.6634Z" fill="#32A6A9"/>
<path fill-rule="evenodd" clip-rule="evenodd" d="M134.975 91.5053C135.263 91.3354 135.557 91.1245 135.839 90.8667C136.592 89.8649 137.374 88.8747 138.179 87.9022C139.867 85.8458 141.648 83.8597 143.483 81.9908C143.594 81.4928 143.63 81.0007 143.553 80.573L144.077 66.6235C143.93 65.5103 144.476 64.0515 145.352 62.9911C145.611 62.6747 145.899 62.3935 146.211 62.165L158.105 53.5176C158.223 53.4297 158.34 53.3535 158.458 53.2832C158.723 53.1309 158.981 53.0313 159.222 52.9786C159.604 52.9024 159.945 52.9434 160.222 53.1075L147.792 45.9071C147.516 45.749 147.169 45.7021 146.787 45.7841C146.546 45.831 146.287 45.9364 146.023 46.0888C145.905 46.1532 145.787 46.2294 145.67 46.3173L133.775 54.9705C133.47 55.1932 133.182 55.4744 132.917 55.7908C132.041 56.8512 131.5 58.31 131.647 59.4231L131.124 73.3727C131.2 73.8004 131.159 74.2983 131.053 74.7905C129.219 76.6652 127.437 78.6455 125.744 80.7019C124.944 81.6744 124.162 82.6645 123.404 83.6664C123.122 83.9242 122.834 84.1351 122.546 84.305C122.24 84.4807 121.934 84.5979 121.64 84.6624C121.328 84.7268 121.023 84.7268 120.74 84.6389L110.134 84.5393C109.893 84.469 109.628 84.4632 109.352 84.5217C109.105 84.5745 108.846 84.6799 108.587 84.8264C108.164 85.0725 107.741 85.4357 107.37 85.8868C107.082 86.2383 106.818 86.6426 106.606 87.0878L99.3565 102.192C98.5686 103.826 98.6979 105.367 99.5564 105.865L100.215 106.246L107.882 111.454L108.67 112.034C107.517 115.667 106.624 119.322 106.03 122.896C105.777 123.628 105.365 124.355 104.848 124.976C104.536 125.357 104.189 125.697 103.825 125.972L92.495 136.664C92.1893 136.893 91.9012 137.174 91.6425 137.484C90.7664 138.551 90.2196 140.009 90.3666 141.117L91.9835 153.836C92.054 154.404 92.2892 154.814 92.6596 155.025L105.089 162.225C104.725 162.015 104.489 161.604 104.413 161.036L102.802 148.317C102.649 147.21 103.196 145.751 104.072 144.685C104.331 144.368 104.619 144.087 104.93 143.864L116.254 133.172C116.625 132.897 116.972 132.557 117.283 132.176C117.795 131.555 118.206 130.829 118.465 130.091C119.053 126.523 119.947 122.867 121.105 119.234L120.311 118.654L112.25 113.177L111.909 112.977C111.139 112.421 111.033 110.962 111.786 109.392L119.041 94.2882C119.253 93.8429 119.512 93.4387 119.8 93.0871C120.176 92.636 120.593 92.2669 121.017 92.0267C121.276 91.8744 121.534 91.7748 121.787 91.7221C122.058 91.6635 122.322 91.6693 122.569 91.7396L133.17 91.8392C133.452 91.9213 133.758 91.9271 134.075 91.8627C134.369 91.7982 134.669 91.6811 134.975 91.5053Z" fill="#32A6A9"/>
<path fill-rule="evenodd" clip-rule="evenodd" d="M171.921 51.6994C173.249 51.6994 174.326 50.6228 174.326 49.2948C174.326 47.9667 173.249 46.8901 171.921 46.8901C170.593 46.8901 169.517 47.9667 169.517 49.2948C169.517 50.6228 170.593 51.6994 171.921 51.6994Z" fill="#DCDD4D"/>
<path fill-rule="evenodd" clip-rule="evenodd" d="M153.888 36.0694C154.552 36.0694 155.09 35.5311 155.09 34.8671C155.09 34.2031 154.552 33.6648 153.888 33.6648C153.224 33.6648 152.686 34.2031 152.686 34.8671C152.686 35.5311 153.224 36.0694 153.888 36.0694Z" fill="#DCDD4D"/>
<path fill-rule="evenodd" clip-rule="evenodd" d="M127.439 85.3642C128.767 85.3642 129.843 84.2876 129.843 82.9596C129.843 81.6315 128.767 80.5549 127.439 80.5549C126.111 80.5549 125.034 81.6315 125.034 82.9596C125.034 84.2876 126.111 85.3642 127.439 85.3642Z" fill="#DCDD4D"/>
<path fill-rule="evenodd" clip-rule="evenodd" d="M104.596 120.231C105.924 120.231 107 119.155 107 117.826C107 116.498 105.924 115.422 104.596 115.422C103.268 115.422 102.191 116.498 102.191 117.826C102.191 119.155 103.268 120.231 104.596 120.231Z" fill="#DCDD4D"/>
<path fill-rule="evenodd" clip-rule="evenodd" d="M107 132.254C107.664 132.254 108.202 131.716 108.202 131.052C108.202 130.388 107.664 129.85 107 129.85C106.336 129.85 105.798 130.388 105.798 131.052C105.798 131.716 106.336 132.254 107 132.254Z" fill="#DCDD4D"/>
<path fill-rule="evenodd" clip-rule="evenodd" d="M134.651 80.555C135.315 80.555 135.854 80.0167 135.854 79.3527C135.854 78.6887 135.315 78.1504 134.651 78.1504C133.987 78.1504 133.449 78.6887 133.449 79.3527C133.449 80.0167 133.987 80.555 134.651 80.555Z" fill="#DCDD4D"/>
<path fill-rule="evenodd" clip-rule="evenodd" d="M165.91 61.318C166.574 61.318 167.113 60.7797 167.113 60.1156C167.113 59.4516 166.574 58.9133 165.91 58.9133C165.246 58.9133 164.708 59.4516 164.708 60.1156C164.708 60.7797 165.246 61.318 165.91 61.318Z" fill="#DCDD4D"/>
<path fill-rule="evenodd" clip-rule="evenodd" d="M199.573 69.7342C200.237 69.7342 200.776 69.1959 200.776 68.5319C200.776 67.8679 200.237 67.3296 199.573 67.3296C198.909 67.3296 198.371 67.8679 198.371 68.5319C198.371 69.1959 198.909 69.7342 199.573 69.7342Z" fill="#DCDD4D"/>
<path fill-rule="evenodd" clip-rule="evenodd" d="M113.011 170.728C114.339 170.728 115.415 169.652 115.415 168.324C115.415 166.996 114.339 165.919 113.011 165.919C111.683 165.919 110.606 166.996 110.606 168.324C110.606 169.652 111.683 170.728 113.011 170.728Z" fill="#DCDD4D"/>
<path fill-rule="evenodd" clip-rule="evenodd" d="M100.988 54.1039C102.316 54.1039 103.393 53.0273 103.393 51.6993C103.393 50.3713 102.316 49.2947 100.988 49.2947C99.6605 49.2947 98.584 50.3713 98.584 51.6993C98.584 53.0273 99.6605 54.1039 100.988 54.1039Z" fill="#DCDD4D"/>
<path fill-rule="evenodd" clip-rule="evenodd" d="M117.82 161.11C118.484 161.11 119.023 160.571 119.023 159.907C119.023 159.243 118.484 158.705 117.82 158.705C117.156 158.705 116.618 159.243 116.618 159.907C116.618 160.571 117.156 161.11 117.82 161.11Z" fill="#DCDD4D"/>
<path fill-rule="evenodd" clip-rule="evenodd" d="M34.8654 38.474C36.1934 38.474 37.2699 37.3975 37.2699 36.0694C37.2699 34.7414 36.1934 33.6648 34.8654 33.6648C33.5375 33.6648 32.4609 34.7414 32.4609 36.0694C32.4609 37.3975 33.5375 38.474 34.8654 38.474Z" fill="#F5F564"/>
<path fill-rule="evenodd" clip-rule="evenodd" d="M24.0451 78.1503C25.3731 78.1503 26.4496 77.0737 26.4496 75.7457C26.4496 74.4177 25.3731 73.3411 24.0451 73.3411C22.7172 73.3411 21.6406 74.4177 21.6406 75.7457C21.6406 77.0737 22.7172 78.1503 24.0451 78.1503Z" fill="#F5F564"/>
<path fill-rule="evenodd" clip-rule="evenodd" d="M68.5285 19.237C69.8565 19.237 70.933 18.1604 70.933 16.8324C70.933 15.5043 69.8565 14.4277 68.5285 14.4277C67.2006 14.4277 66.124 15.5043 66.124 16.8324C66.124 18.1604 67.2006 19.237 68.5285 19.237Z" fill="#F5F564"/>
<path fill-rule="evenodd" clip-rule="evenodd" d="M131.045 36.0693C132.373 36.0693 133.45 34.9927 133.45 33.6646C133.45 32.3366 132.373 31.26 131.045 31.26C129.717 31.26 128.641 32.3366 128.641 33.6646C128.641 34.9927 129.717 36.0693 131.045 36.0693Z" fill="#F5F564"/>
<path fill-rule="evenodd" clip-rule="evenodd" d="M70.9328 120.231C72.2608 120.231 73.3373 119.155 73.3373 117.826C73.3373 116.498 72.2608 115.422 70.9328 115.422C69.6048 115.422 68.5283 116.498 68.5283 117.826C68.5283 119.155 69.6048 120.231 70.9328 120.231Z" fill="#F5F564"/>
<path fill-rule="evenodd" clip-rule="evenodd" d="M91.3703 93.7804C92.6983 93.7804 93.7748 92.7039 93.7748 91.3758C93.7748 90.0478 92.6983 88.9712 91.3703 88.9712C90.0423 88.9712 88.9658 90.0478 88.9658 91.3758C88.9658 92.7039 90.0423 93.7804 91.3703 93.7804Z" fill="#F5F564"/>
<path fill-rule="evenodd" clip-rule="evenodd" d="M7.21309 133.457C8.54105 133.457 9.61758 132.38 9.61758 131.052C9.61758 129.724 8.54105 128.647 7.21309 128.647C5.88512 128.647 4.80859 129.724 4.80859 131.052C4.80859 132.38 5.88512 133.457 7.21309 133.457Z" fill="#F5F564"/>
<path fill-rule="evenodd" clip-rule="evenodd" d="M2.40449 64.925C3.73246 64.925 4.80899 63.8484 4.80899 62.5203C4.80899 61.1923 3.73246 60.1157 2.40449 60.1157C1.07653 60.1157 0 61.1923 0 62.5203C0 63.8484 1.07653 64.925 2.40449 64.925Z" fill="#F5F564"/>
<path fill-rule="evenodd" clip-rule="evenodd" d="M105.798 2.40462C106.462 2.40462 107 1.86633 107 1.20231C107 0.538293 106.462 0 105.798 0C105.134 0 104.596 0.538293 104.596 1.20231C104.596 1.86633 105.134 2.40462 105.798 2.40462Z" fill="#F5F564"/>
<path fill-rule="evenodd" clip-rule="evenodd" d="M88.966 189.965C90.294 189.965 91.3705 188.889 91.3705 187.561C91.3705 186.233 90.294 185.156 88.966 185.156C87.6381 185.156 86.5615 186.233 86.5615 187.561C86.5615 188.889 87.6381 189.965 88.966 189.965Z" fill="#F5F564"/>
<path fill-rule="evenodd" clip-rule="evenodd" d="M143.669 55.3064C144.665 55.3064 145.472 54.499 145.472 53.5029C145.472 52.5069 144.665 51.6995 143.669 51.6995C142.673 51.6995 141.865 52.5069 141.865 53.5029C141.865 54.499 142.673 55.3064 143.669 55.3064Z" fill="#F5F564"/>
<path fill-rule="evenodd" clip-rule="evenodd" d="M28.2526 155.098C29.2486 155.098 30.056 154.291 30.056 153.295C30.056 152.299 29.2486 151.491 28.2526 151.491C27.2566 151.491 26.4492 152.299 26.4492 153.295C26.4492 154.291 27.2566 155.098 28.2526 155.098Z" fill="#F5F564"/>
<path fill-rule="evenodd" clip-rule="evenodd" d="M18.6344 179.145C19.6304 179.145 20.4378 178.337 20.4378 177.341C20.4378 176.345 19.6304 175.538 18.6344 175.538C17.6385 175.538 16.8311 176.345 16.8311 177.341C16.8311 178.337 17.6385 179.145 18.6344 179.145Z" fill="#F5F564"/>
<path fill-rule="evenodd" clip-rule="evenodd" d="M71.5338 144.277C72.5298 144.277 73.3372 143.47 73.3372 142.474C73.3372 141.478 72.5298 140.67 71.5338 140.67C70.5379 140.67 69.7305 141.478 69.7305 142.474C69.7305 143.47 70.5379 144.277 71.5338 144.277Z" fill="#F5F564"/>
<path fill-rule="evenodd" clip-rule="evenodd" d="M160.362 135.135C169.822 128.228 176.402 114.501 175.132 104.424C173.932 95.1612 166.518 92.1908 158.004 97.0887C157.234 97.5339 156.458 98.0378 155.676 98.6119C146.216 105.513 139.637 119.246 140.907 129.364C142.106 138.586 149.52 141.55 158.034 136.652C158.804 136.213 159.58 135.703 160.362 135.135ZM213.237 85.424C213.431 86.8653 212.461 88.8865 211.109 89.8825L199.785 100.616C198.809 101.307 197.986 102.467 197.574 103.65C196.986 107.218 196.092 110.88 194.934 114.512L195.728 115.133L203.789 120.57C204.882 120.934 205.112 122.562 204.253 124.349L196.998 139.459C196.516 140.466 195.781 141.281 195.022 141.72C194.487 142.025 193.94 142.142 193.476 142.001L182.869 141.902C182.328 141.744 181.699 141.878 181.064 142.242C180.776 142.406 180.482 142.622 180.2 142.88C177.842 146.044 175.255 149.038 172.556 151.756C172.445 152.248 172.409 152.746 172.486 153.174L171.963 167.123C172.157 168.606 171.181 170.586 169.828 171.576L157.934 180.27C156.346 181.214 155.288 180.757 155.112 179.397L151.396 168.535C151.243 167.504 150.643 166.948 149.849 166.883C146.998 167.838 144.293 168.36 141.694 168.559L140.76 169.959L131.964 184.237C131.482 185.268 130.741 186.082 129.994 186.516C129.465 186.82 128.93 186.932 128.477 186.803L118.917 183.95C117.788 183.61 117.594 181.911 118.417 180.188L123.826 164.891C124.385 163.708 124.532 162.46 124.267 161.581C122.721 159.759 121.398 157.591 120.375 155.084C120.069 155.16 119.781 155.283 119.464 155.459L107.275 161.886C105.682 162.829 104.588 162.395 104.412 161.036L102.801 148.317C102.607 146.876 103.577 144.855 104.929 143.864L116.254 133.172C117.23 132.44 118.053 131.274 118.464 130.091C119.052 126.523 119.946 122.867 121.104 119.234L120.31 118.654L112.25 113.177C111.156 112.854 110.927 111.179 111.785 109.392L119.04 94.2882C119.523 93.2805 120.258 92.4603 121.016 92.0268C121.551 91.7162 122.098 91.5991 122.568 91.7397L133.169 91.8393C133.71 92.0033 134.339 91.8686 134.974 91.5053C135.262 91.3354 135.556 91.1245 135.838 90.8667C138.196 87.7441 140.783 84.7503 143.482 81.9908C143.594 81.4928 143.629 81.0007 143.552 80.573L144.076 66.6235C143.888 65.1823 144.858 63.161 146.21 62.165L158.104 53.5176C158.222 53.4297 158.34 53.3536 158.457 53.2833C159.698 52.5744 160.75 52.9903 160.927 54.3437L164.642 65.2116C164.795 66.2427 165.395 66.7993 166.189 66.8637C169.04 65.9087 171.745 65.3815 174.344 65.2233L175.279 63.782L184.074 49.5103C184.562 48.4909 185.309 47.6648 186.068 47.2312C186.591 46.9266 187.12 46.8153 187.561 46.9442L197.121 49.8384C198.25 50.1372 198.444 51.8362 197.621 53.5528L192.212 68.8498C191.653 70.0801 191.506 71.2812 191.771 72.16C193.317 73.982 194.64 76.1497 195.663 78.6631C195.969 78.5811 196.263 78.4639 196.574 78.2823L208.804 71.8787C210.362 70.9531 211.45 71.3515 211.626 72.7107L213.237 85.424Z" fill="url(#paint0_linear)"/>
<path opacity="0.998158" d="M165.462 88.2513L166.182 88.2538L166.184 87.5338L165.464 87.5313L165.462 88.2513ZM156.044 90.0237L156.292 90.6996L156.044 90.0237ZM165.457 89.6913L165.454 90.4113L166.174 90.4138L166.177 89.6938L165.457 89.6913ZM156.54 91.3755L156.292 90.6996L156.54 91.3755ZM146.896 96.7747L146.325 97.2136L146.764 97.7844L147.335 97.3455L146.896 96.7747ZM146.018 95.6332L145.579 95.0625L145.008 95.5014L145.447 96.0721L146.018 95.6332ZM132.307 112.981L132.601 112.323L131.944 112.03L131.65 112.687L132.307 112.981ZM133.622 113.568L134.279 113.862L134.573 113.205L133.916 112.911L133.622 113.568ZM132.798 136.623L133.139 137.257L133.773 136.916L133.432 136.282L132.798 136.623ZM131.53 137.305L130.896 137.646L131.237 138.28L131.871 137.939L131.53 137.305ZM156.54 144.427L156.292 143.752L156.54 144.427ZM166.625 138.773L167.065 139.343L167.635 138.903L167.195 138.333L166.625 138.773ZM141.963 145.531L141.267 145.344L141.081 146.04L141.776 146.227L141.963 145.531ZM142.337 144.141L142.523 143.445L141.828 143.258L141.641 143.954L142.337 144.141ZM156.044 143.076L155.796 142.4L156.044 143.076ZM165.745 137.633L166.315 137.193L165.875 136.623L165.305 137.063L165.745 137.633ZM178.047 93.1156L178.552 92.6023L178.038 92.0974L177.533 92.6107L178.047 93.1156ZM179.995 122.089L179.69 122.742L180.343 123.046L180.647 122.393L179.995 122.089ZM178.69 121.48L178.037 121.176L177.733 121.828L178.385 122.133L178.69 121.48ZM177.037 94.1422L176.524 93.6373L176.019 94.1506L176.532 94.6555L177.037 94.1422ZM165.464 87.5313C162.418 87.5207 159.16 88.113 155.796 89.3478L156.292 90.6996C159.515 89.5168 162.603 88.9614 165.459 88.9713L165.464 87.5313ZM166.177 89.6938L166.182 88.2538L164.742 88.2488L164.737 89.6888L166.177 89.6938ZM156.788 92.0515C159.87 90.9205 162.788 90.402 165.454 90.4113L165.459 88.9713C162.603 88.9614 159.515 89.5168 156.292 90.6996L156.788 92.0515ZM147.335 97.3455C150.273 95.0862 153.465 93.2713 156.788 92.0515L156.292 90.6996C152.816 91.9754 149.497 93.866 146.457 96.204L147.335 97.3455ZM145.447 96.0721L146.325 97.2136L147.467 96.3358L146.589 95.1943L145.447 96.0721ZM155.796 89.3478C152.168 90.6794 148.722 92.6457 145.579 95.0625L146.457 96.204C149.497 93.866 152.816 91.9754 156.292 90.6996L155.796 89.3478ZM131.65 112.687C129.59 117.297 128.403 122.172 128.403 126.933H129.843C129.843 122.408 130.973 117.733 132.965 113.274L131.65 112.687ZM133.916 112.911L132.601 112.323L132.014 113.638L133.328 114.226L133.916 112.911ZM131.283 126.933C131.283 122.644 132.355 118.169 134.279 113.862L132.965 113.274C130.973 117.733 129.843 122.408 129.843 126.933H131.283ZM133.432 136.282C132.068 133.745 131.283 130.606 131.283 126.933H129.843C129.843 130.812 130.673 134.191 132.164 136.964L133.432 136.282ZM131.871 137.939L133.139 137.257L132.457 135.989L131.189 136.671L131.871 137.939ZM128.403 126.933C128.403 131.017 129.277 134.636 130.896 137.646L132.164 136.964C130.673 134.191 129.843 130.812 129.843 126.933H128.403ZM156.788 145.103C160.439 143.763 163.906 141.781 167.065 139.343L166.185 138.203C163.129 140.561 159.79 142.468 156.292 143.752L156.788 145.103ZM141.776 146.227C146.203 147.417 151.361 147.095 156.788 145.103L156.292 143.752C151.091 145.661 146.24 145.935 142.15 144.836L141.776 146.227ZM141.641 143.954L141.267 145.344L142.658 145.718L143.032 144.328L141.641 143.954ZM155.796 142.4C150.821 144.226 146.277 144.454 142.523 143.445L142.15 144.836C146.24 145.935 151.091 145.661 156.292 143.752L155.796 142.4ZM165.305 137.063C162.352 139.342 159.141 141.172 155.796 142.4L156.292 143.752C159.79 142.468 163.129 140.561 166.185 138.203L165.305 137.063ZM167.195 138.333L166.315 137.193L165.175 138.073L166.055 139.213L167.195 138.333ZM184.182 107.518C184.182 101.281 182.139 96.131 178.552 92.6023L177.542 93.6289C180.809 96.8426 182.742 101.599 182.742 107.518H184.182ZM180.647 122.393C182.884 117.598 184.182 112.495 184.182 107.518H182.742C182.742 112.249 181.507 117.144 179.342 121.785L180.647 122.393ZM178.385 122.133L179.69 122.742L180.299 121.437L178.994 120.828L178.385 122.133ZM181.302 107.518C181.302 112.003 180.129 116.691 178.037 121.176L179.342 121.785C181.507 117.144 182.742 112.249 182.742 107.518H181.302ZM176.532 94.6555C179.479 97.5544 181.302 101.917 181.302 107.518H182.742C182.742 101.599 180.809 96.8426 177.542 93.6289L176.532 94.6555ZM177.533 92.6107L176.524 93.6373L177.55 94.6471L178.56 93.6205L177.533 92.6107Z" fill="#5CD8DC"/>
<defs>
<linearGradient id="paint0_linear" x1="181.193" y1="8.91027" x2="63.3344" y2="65.2317" gradientUnits="userSpaceOnUse">
<stop stop-color="#43C0C4"/>
<stop offset="1" stop-color="#37AAAD"/>
</linearGradient>
</defs>
</svg>
