<svg width="50" height="50" viewBox="0 0 50 50" fill="none" xmlns="http://www.w3.org/2000/svg">
<path opacity="0.15" fill-rule="evenodd" clip-rule="evenodd" d="M25 50C38.8071 50 50 38.8071 50 25C50 11.1929 38.8071 0 25 0C11.1929 0 0 11.1929 0 25C0 38.8071 11.1929 50 25 50Z" fill="url(#paint0_linear)"/>
<path d="M32.5714 15.2143V15.9286C32.5714 16.1295 32.7277 16.2857 32.9286 16.2857H34.4241L31.5781 19.1205C30.4844 18.25 29.0893 17.7143 27.5714 17.7143C26.2545 17.7143 25.0268 18.1161 24 18.7969C22.7277 17.9487 21.1317 17.5357 19.4241 17.7924C16.6562 18.2165 14.4464 20.4487 14.067 23.2277C13.5424 26.9219 16.2098 30.1362 19.7143 30.5268V32H18.6429C18.442 32 18.2857 32.1562 18.2857 32.3571V33.0714C18.2857 33.2723 18.442 33.4286 18.6429 33.4286H19.7143V34.5C19.7143 34.7009 19.8705 34.8571 20.0714 34.8571H20.7857C20.9866 34.8571 21.1429 34.7009 21.1429 34.5V33.4286H22.2143C22.4152 33.4286 22.5714 33.2723 22.5714 33.0714V32.3571C22.5714 32.1562 22.4152 32 22.2143 32H21.1429V30.5268C22.192 30.4152 23.1629 30.0469 24 29.4888C25.2723 30.3371 26.8683 30.75 28.5647 30.4933C31.2545 30.0915 33.4308 27.9598 33.8996 25.2812C34.2344 23.3281 33.6875 21.5089 32.5938 20.1362L35.4286 17.2902V18.7857C35.4286 18.9866 35.5848 19.1429 35.7857 19.1429H36.5C36.7009 19.1429 36.8571 18.9866 36.8571 18.7857V15.5714C36.8571 15.1808 36.5335 14.8571 36.1429 14.8571H32.9286C32.7277 14.8571 32.5714 15.0134 32.5714 15.2143ZM24 27.6362C23.1183 26.7321 22.5714 25.5045 22.5714 24.1429C22.5714 22.7812 23.1183 21.5536 24 20.6496C24.8817 21.5536 25.4286 22.7812 25.4286 24.1429C25.4286 25.5045 24.8817 26.7321 24 27.6362ZM15.4286 24.1429C15.4286 21.3862 17.6719 19.1429 20.4286 19.1429C21.3103 19.1429 22.1473 19.3772 22.8616 19.779C21.8013 20.9286 21.1429 22.4576 21.1429 24.1429C21.1429 25.8281 21.8013 27.3571 22.8616 28.5067C22.1473 28.9085 21.3103 29.1429 20.4286 29.1429C17.6719 29.1429 15.4286 26.8996 15.4286 24.1429ZM27.5714 29.1429C26.6897 29.1429 25.8527 28.9085 25.1384 28.5067C26.1987 27.3571 26.8571 25.8281 26.8571 24.1429C26.8571 22.4576 26.1987 20.9286 25.1384 19.779C25.8527 19.3772 26.6897 19.1429 27.5714 19.1429C30.3281 19.1429 32.5714 21.3862 32.5714 24.1429C32.5714 26.8996 30.3281 29.1429 27.5714 29.1429Z" fill="#48B3B7"/>
<defs>
<linearGradient id="paint0_linear" x1="17.5158" y1="-9.97777" x2="-11.2821" y2="30.3471" gradientUnits="userSpaceOnUse">
<stop stop-color="#43C0C4"/>
<stop offset="1" stop-color="#37AAAD"/>
</linearGradient>
</defs>
</svg>
