<svg width="50" height="50" viewBox="0 0 50 50" fill="none" xmlns="http://www.w3.org/2000/svg">
<path opacity="0.15" fill-rule="evenodd" clip-rule="evenodd" d="M25 50C38.8071 50 50 38.8071 50 25C50 11.1929 38.8071 0 25 0C11.1929 0 0 11.1929 0 25C0 38.8071 11.1929 50 25 50Z" fill="url(#paint0_linear)"/>
<path d="M32.2857 30.471C32.2857 27.5357 31.5603 24.1429 28.6362 24.1429C27.7321 25.0246 26.5045 25.5714 25.1429 25.5714C23.7812 25.5714 22.5536 25.0246 21.6496 24.1429C18.7254 24.1429 18 27.5357 18 30.471C18 32.1004 19.0714 33.4286 20.3772 33.4286H29.9085C31.2143 33.4286 32.2857 32.1004 32.2857 30.471ZM29.4286 20.5714C29.4286 18.2054 27.5089 16.2857 25.1429 16.2857C22.7768 16.2857 20.8571 18.2054 20.8571 20.5714C20.8571 22.9375 22.7768 24.8571 25.1429 24.8571C27.5089 24.8571 29.4286 22.9375 29.4286 20.5714Z" fill="#DCDD4D"/>
<defs>
<linearGradient id="paint0_linear" x1="50" y1="0" x2="0" y2="0" gradientUnits="userSpaceOnUse">
<stop stop-color="#C8C961"/>
<stop offset="1" stop-color="#DCDD4D"/>
</linearGradient>
</defs>
</svg>
