<svg width="50" height="50" viewBox="0 0 50 50" fill="none" xmlns="http://www.w3.org/2000/svg">
<path opacity="0.15" fill-rule="evenodd" clip-rule="evenodd" d="M25 50C38.8071 50 50 38.8071 50 25C50 11.1929 38.8071 0 25 0C11.1929 0 0 11.1929 0 25C0 38.8071 11.1929 50 25 50Z" fill="#48B3B7"/>
<path d="M20.8571 29.8571C20.8571 30.2478 20.5335 30.5714 20.1429 30.5714C19.7522 30.5714 19.4286 30.2478 19.4286 29.8571C19.4286 29.4665 19.7522 29.1429 20.1429 29.1429C20.5335 29.1429 20.8571 29.4665 20.8571 29.8571ZM33.7143 23.4286C33.7143 23.8415 33.4018 24.846 32.8772 24.8571C33.1116 25.125 33.2679 25.6496 33.2679 26.0067C33.2679 26.5312 33.0558 26.9777 32.6763 27.3348C32.8103 27.5692 32.8772 27.8371 32.8772 28.1049C32.8772 28.6183 32.6205 29.2545 32.1518 29.5112C32.1853 29.7121 32.2076 29.9241 32.2076 30.1362C32.2076 31.4978 31.3259 32 30.0647 32H28.7143C27.3973 32 26.125 31.6094 24.8973 31.1853C24.2946 30.9732 23.2679 30.5714 22.6429 30.5714H22.2857V23.4286H22.6429C23.5246 23.4286 24.8527 21.5201 25.3549 20.8728C25.6339 20.5268 25.9018 20.1808 26.2143 19.8571C27.2969 18.7188 26.9286 17.0112 27.6429 16.2857C29.1719 16.2857 29.4286 17.1228 29.4286 18.4286C29.4286 19.7455 28.3571 20.6942 28.3571 22H32.2857C33.0335 22 33.7143 22.6696 33.7143 23.4286ZM35.1429 23.4174C35.1429 21.8772 33.8259 20.5714 32.2857 20.5714H30.3214C30.6562 19.8795 30.8571 19.2098 30.8571 18.4286C30.8571 17.6808 30.8125 17.0335 30.4665 16.3527C29.9196 15.2701 28.8036 14.8571 27.6429 14.8571C27.2634 14.8571 26.9063 15.0134 26.6384 15.2701C25.5223 16.3638 25.8795 18.1272 25.2098 18.8415C24.7857 19.2991 24.3951 19.779 24.0156 20.2701C23.6808 20.7054 22.9219 21.7098 22.4866 22H19.4286C18.6362 22 18 22.6362 18 23.4286V30.5714C18 31.3638 18.6362 32 19.4286 32H22.6429C22.9554 32 23.8594 32.3348 24.183 32.4464C25.6563 32.9598 27.1295 33.4286 28.7143 33.4286H29.7522H30.154C32.2188 33.4286 33.6585 32.1897 33.6362 30.0804C34.0714 29.5223 34.3058 28.808 34.3058 28.0937C34.3058 27.9375 34.2946 27.7701 34.2723 27.6138C34.5513 27.1228 34.6964 26.5647 34.6964 26.0067C34.6964 25.75 34.6629 25.4821 34.596 25.2366C34.9531 24.7009 35.1429 24.0647 35.1429 23.4174Z" fill="#48B3B7"/>
</svg>
