<svg width="70" height="70" viewBox="0 0 70 70" fill="none" xmlns="http://www.w3.org/2000/svg">
<path fill-rule="evenodd" clip-rule="evenodd" d="M35 70C54.33 70 70 54.33 70 35C70 15.67 54.33 0 35 0C15.67 0 0 15.67 0 35C0 54.33 15.67 70 35 70Z" fill="#48B3B7" fill-opacity="0.15"/>
<mask id="mask0" mask-type="alpha" maskUnits="userSpaceOnUse" x="18" y="15" width="38" height="38">
<path fill-rule="evenodd" clip-rule="evenodd" d="M18.0029 15.0298H55.9948V52.9998H18.0029V15.0298Z" fill="white"/>
</mask>
<g mask="url(#mask0)">
<path fill-rule="evenodd" clip-rule="evenodd" d="M35.1585 52.9999C44.635 52.9999 52.3172 45.3582 52.3172 35.9314C52.3172 33.0309 51.5922 30.3016 50.3105 27.9111C50.1703 27.9309 50.0261 27.9389 49.8859 27.9389C49.8059 27.9389 49.7218 27.935 49.6377 27.9309L47.4548 27.7636L45.8847 29.3254C47.0822 31.246 47.7751 33.5089 47.7751 35.9314C47.7751 42.8601 42.1278 48.4779 35.1626 48.4779C28.1974 48.4779 22.546 42.8601 22.546 35.9314C22.546 29.0027 28.1935 23.385 35.1585 23.385C37.5978 23.385 39.8727 24.0743 41.7993 25.2655L43.2213 23.8511L43.029 21.3609C43.013 21.1617 43.0169 20.9625 43.0368 20.7672C40.6779 19.5521 37.9984 18.8628 35.1546 18.8628C25.6822 18.8628 18 26.5045 18 35.9314C18 45.3582 25.6822 52.9999 35.1585 52.9999Z" fill="#48B3B7"/>
<path fill-rule="evenodd" clip-rule="evenodd" d="M35.159 31.5207C35.2712 31.5207 35.3833 31.5246 35.4955 31.5326L38.7316 28.3133C37.6462 27.8073 36.4366 27.5244 35.159 27.5244C30.4929 27.5244 26.7119 31.2855 26.7119 35.9274C26.7119 40.569 30.4929 44.334 35.159 44.334C39.8253 44.334 43.6062 40.5729 43.6062 35.9313C43.6062 34.6603 43.3219 33.457 42.8132 32.3773L42.7449 32.445L39.5769 35.5967C39.5849 35.7081 39.5888 35.8198 39.5888 35.9313C39.5888 38.3656 37.6063 40.3418 35.1551 40.3418C32.7038 40.3418 30.7252 38.3656 30.7252 35.9313C30.7252 33.4969 32.7118 31.5207 35.159 31.5207Z" fill="#48B3B7"/>
<path fill-rule="evenodd" clip-rule="evenodd" d="M52.8417 20.7113L53.8588 19.6995C54.3235 19.2372 54.3235 18.4921 53.8588 18.0298L53.154 17.3246C52.9217 17.0937 52.6173 16.9781 52.3169 16.9781C52.0165 16.9781 51.7081 17.0937 51.4797 17.3246L50.3143 18.4841L50.074 15.3963C50.0579 15.1693 49.8696 15.0298 49.6734 15.0298C49.5733 15.0298 49.4732 15.0656 49.393 15.1453L44.807 19.7074C44.3944 20.1177 44.1822 20.6876 44.2262 21.2692L44.2381 21.4484L44.4585 24.3051L39.8165 28.923L39.7482 28.9907L35.5789 33.1384C35.4107 33.3057 35.3065 33.5288 35.2904 33.7638L35.2105 34.7638C35.1623 35.3457 35.6268 35.8396 36.2077 35.8396H36.2597L37.3212 35.7879C37.5694 35.7758 37.8059 35.6723 37.978 35.497L46.9898 26.5324L49.6093 26.7316L49.7255 26.7396C49.7775 26.7435 49.8297 26.7435 49.8776 26.7435C50.4064 26.7435 50.9151 26.5363 51.2955 26.1618L55.8775 21.6038C56.1178 21.3647 55.9657 20.9504 55.6252 20.9264L52.8417 20.7113Z" fill="#48B3B7"/>
</g>
</svg>
