<svg width="50" height="50" viewBox="0 0 50 50" fill="none" xmlns="http://www.w3.org/2000/svg">
<path opacity="0.15" fill-rule="evenodd" clip-rule="evenodd" d="M25 50C38.8071 50 50 38.8071 50 25C50 11.1929 38.8071 0 25 0C11.1929 0 0 11.1929 0 25C0 38.8071 11.1929 50 25 50Z" fill="#DCDD4D"/>
<path d="M19.2857 27.7143C19.2857 28.5067 18.6496 29.1429 17.8571 29.1429C17.0647 29.1429 16.4286 28.5067 16.4286 27.7143C16.4286 26.9219 17.0647 26.2857 17.8571 26.2857C18.6496 26.2857 19.2857 26.9219 19.2857 27.7143ZM21.4286 22.7143C21.4286 23.5067 20.7924 24.1429 20 24.1429C19.2076 24.1429 18.5714 23.5067 18.5714 22.7143C18.5714 21.9219 19.2076 21.2857 20 21.2857C20.7924 21.2857 21.4286 21.9219 21.4286 22.7143ZM26.2054 28.0826C26.9308 28.5848 27.3103 29.5 27.0759 30.404C26.7746 31.5424 25.6027 32.2344 24.4531 31.933C23.3147 31.6317 22.6228 30.4598 22.9241 29.3103C23.1696 28.4062 23.9397 27.7924 24.8214 27.7254L25.9487 23.4621C26.0491 23.0826 26.4397 22.8482 26.8192 22.9487C27.1987 23.0491 27.4219 23.4397 27.3326 23.8192L26.2054 28.0826ZM33.5714 27.7143C33.5714 28.5067 32.9353 29.1429 32.1429 29.1429C31.3504 29.1429 30.7143 28.5067 30.7143 27.7143C30.7143 26.9219 31.3504 26.2857 32.1429 26.2857C32.9353 26.2857 33.5714 26.9219 33.5714 27.7143ZM26.4286 20.5714C26.4286 21.3638 25.7924 22 25 22C24.2076 22 23.5714 21.3638 23.5714 20.5714C23.5714 19.779 24.2076 19.1429 25 19.1429C25.7924 19.1429 26.4286 19.779 26.4286 20.5714ZM31.4286 22.7143C31.4286 23.5067 30.7924 24.1429 30 24.1429C29.2076 24.1429 28.5714 23.5067 28.5714 22.7143C28.5714 21.9219 29.2076 21.2857 30 21.2857C30.7924 21.2857 31.4286 21.9219 31.4286 22.7143ZM35 27.7143C35 22.2009 30.5134 17.7143 25 17.7143C19.4866 17.7143 15 22.2009 15 27.7143C15 29.6339 15.5469 31.4978 16.5737 33.1049C16.7076 33.3058 16.9308 33.4286 17.1763 33.4286H32.8237C33.0692 33.4286 33.2924 33.3058 33.4263 33.1049C34.4531 31.4866 35 29.6339 35 27.7143Z" fill="#DCDD4D"/>
</svg>
