<svg width="70" height="70" viewBox="0 0 70 70" fill="none" xmlns="http://www.w3.org/2000/svg">
<path fill-rule="evenodd" clip-rule="evenodd" d="M35 70C54.33 70 70 54.33 70 35C70 15.67 54.33 0 35 0C15.67 0 0 15.67 0 35C0 54.33 15.67 70 35 70Z" fill="#48B3B7" fill-opacity="0.15"/>
<path fill-rule="evenodd" clip-rule="evenodd" d="M47.4466 21.533V26.6747C51.681 27.2192 54.9612 30.799 54.9612 35.1207C54.9612 37.3958 54.0628 39.5351 52.4313 41.1441C50.8001 42.7526 48.631 43.6386 46.3243 43.6386H46.3239C43.7955 43.639 41.4022 42.551 39.757 40.6539C39.354 40.1889 39.4096 39.4903 39.8807 39.0925C40.3519 38.6951 41.0608 38.75 41.4641 39.2145C42.6817 40.6188 44.4531 41.4241 46.3239 41.4241C48.0313 41.4241 49.6362 40.7687 50.8436 39.578C52.0506 38.3873 52.7156 36.8046 52.7156 35.1207C52.7156 31.6452 49.8481 28.8174 46.3239 28.8174C44.4531 28.8174 42.6817 29.6226 41.4641 31.0268C41.0612 31.4915 40.3522 31.5459 39.8807 31.1485C39.4096 30.7511 39.3544 30.0521 39.7574 29.5875C41.1563 27.9742 43.0968 26.9466 45.2011 26.6751V21.533L43.53 23.181C43.0914 23.6135 42.3801 23.6135 41.9419 23.181C41.5033 22.7484 41.5033 22.0474 41.9419 21.6149L45.1012 18.4997C45.4275 18.1776 45.8618 18 46.3239 18H46.3243C46.7859 18 47.2203 18.1776 47.5469 18.4997L50.7062 21.6149C51.1444 22.0474 51.1444 22.7484 50.7062 23.181C50.4868 23.3972 50.1994 23.5054 49.912 23.5054C49.6245 23.5054 49.3375 23.3972 49.1181 23.181L47.4466 21.533ZM29.3859 30.9639C28.1757 29.6253 26.4401 28.8579 24.6241 28.8579C21.1072 28.8579 18.2456 31.6796 18.2456 35.1477C18.2456 38.6163 21.1069 41.4379 24.6241 41.4379C26.4401 41.4379 28.1757 40.6702 29.3859 39.3319C29.7987 38.8754 30.5087 38.8353 30.9712 39.2423C31.4341 39.6494 31.4749 40.3496 31.062 40.8062C29.6777 42.3371 27.7845 43.315 25.7469 43.5799V47.2469H28.1816C28.8016 47.2469 29.3044 47.7429 29.3044 48.3542C29.3044 48.966 28.8016 49.4615 28.1816 49.4615H25.7469V51.7115C25.7469 52.3233 25.244 52.8192 24.6241 52.8192C24.0037 52.8192 23.5012 52.3233 23.5012 51.7115V49.4615H21.0665C20.4462 49.4615 19.9437 48.966 19.9437 48.3542C19.9437 47.7429 20.4462 47.2469 21.0665 47.2469H23.5012V43.5807C19.2744 43.0361 16 39.4621 16 35.1477C16 30.4583 19.8689 26.643 24.6241 26.643C27.0796 26.643 29.4262 27.6808 31.062 29.4898C31.4749 29.9463 31.4341 30.6461 30.9712 31.0531C30.5083 31.4602 29.7987 31.42 29.3859 30.9639ZM32.7939 33.8856H38.4478C39.0681 33.8856 39.5709 33.3901 39.5709 32.7783C39.5709 32.167 39.0681 31.6711 38.4478 31.6711H32.7939C32.1735 31.6711 31.6711 32.167 31.6711 32.7783C31.6711 33.3901 32.1735 33.8856 32.7939 33.8856ZM32.7939 36.0607H38.4478C39.0681 36.0607 39.5709 36.5566 39.5709 37.168C39.5709 37.7797 39.0681 38.2753 38.4478 38.2753H32.7939C32.1735 38.2753 31.6711 37.7797 31.6711 37.168C31.6711 36.5566 32.1735 36.0607 32.7939 36.0607Z" fill="#48B3B7"/>
</svg>
